<svg xmlns="http://www.w3.org/2000/svg" viewBox="0 0 27 30.66"><path d="M113.32,176v4H102.57v-4h10.75m.51-2H102.05a1.49,1.49,0,0,0-1.48,1.49v5a1.49,1.49,0,0,0,1.48,1.49h11.78a1.49,1.49,0,0,0,1.49-1.49v-5a1.49,1.49,0,0,0-1.49-1.49Z" transform="translate(-94.44 -167.5)"/><path d="M98.31,167.5a3.87,3.87,0,0,0-3.87,3.87v22.9h0a3.9,3.9,0,0,0,3.9,3.89h23.1v-2h0a1.89,1.89,0,0,1,0-3.76h0V167.5Zm-1.87,3.87a1.87,1.87,0,0,1,1.87-1.87h21.13v20.88H98.33a3.78,3.78,0,0,0-1.89.5Zm1.9,24.79a1.89,1.89,0,1,1,0-3.78h19.93a3.86,3.86,0,0,0-.51,1.88v0a3.86,3.86,0,0,0,.51,1.88H98.34Z" transform="translate(-94.44 -167.5)"/></svg>