<svg xmlns="http://www.w3.org/2000/svg" viewBox="0 0 15 12"><path d="M144.94,63A1.07,1.07,0,0,1,146,64.06v7.88A1.07,1.07,0,0,1,144.94,73H134.06A1.07,1.07,0,0,1,133,71.94V64.06A1.07,1.07,0,0,1,134.06,63h10.88m0-1H134.06A2.07,2.07,0,0,0,132,64.06v7.88A2.07,2.07,0,0,0,134.06,74h10.88A2.07,2.07,0,0,0,147,71.94V64.06A2.07,2.07,0,0,0,144.94,62Z" transform="translate(-132 -62)" fill="currentColor"/><line x1="1" y1="1" x2="7.51" y2="7" fill="none" stroke="currentColor" stroke-linecap="round" stroke-miterlimit="10"/><line x1="14" y1="1" x2="7.49" y2="7" fill="none" stroke="currentColor" stroke-linecap="round" stroke-miterlimit="10"/></svg>