<svg xmlns="http://www.w3.org/2000/svg" viewBox="0 0 15.21 20"><path d="M139.29,42.65a6.11,6.11,0,0,1,6.1,6.11c0,1.9-1.18,4-3.51,6.27l-.18.17a21,21,0,0,0-2.41,2.85,21,21,0,0,0-2.41-2.85L136.7,55c-2.33-2.26-3.52-4.37-3.52-6.27a6.12,6.12,0,0,1,6.11-6.11m0-1.5a7.61,7.61,0,0,0-7.61,7.61c0,3.76,3.56,6.92,4.14,7.5a14.15,14.15,0,0,1,3.47,4.89,14.15,14.15,0,0,1,3.47-4.89c.58-.58,4.13-3.74,4.13-7.5a7.61,7.61,0,0,0-7.6-7.61Z" transform="translate(-131.68 -41.15)" fill="#currentColor"/><path d="M139.29,46.6a2.16,2.16,0,1,1-2.16,2.16,2.16,2.16,0,0,1,2.16-2.16m0-1.5A3.66,3.66,0,1,0,143,48.76a3.66,3.66,0,0,0-3.66-3.66Z" transform="translate(-131.68 -41.15)" fill="#currentColor"/></svg>