<svg xmlns="http://www.w3.org/2000/svg" viewBox="0 0 30.66 30.66"><path d="M143.67,169.5a13.33,13.33,0,1,1-13.34,13.33,13.35,13.35,0,0,1,13.34-13.33m0-2A15.33,15.33,0,1,0,159,182.83a15.33,15.33,0,0,0-15.33-15.33Z" transform="translate(-128.33 -167.5)"/><path d="M139.82,185.46h2.08a1.33,1.33,0,0,0,.42,1,2.07,2.07,0,0,0,1.33.33,1.57,1.57,0,0,0,1.82-1.82,1.25,1.25,0,0,0-.08-.45,1.06,1.06,0,0,0-.19-.33,1,1,0,0,0-.3-.25,2.07,2.07,0,0,0-.37-.18,2.58,2.58,0,0,0-.45-.1l-.47-.07-.5-.07-.46-.07a4.47,4.47,0,0,1-.78-.17,2.61,2.61,0,0,1-.72-.34,2.38,2.38,0,0,1-.61-.57,2.66,2.66,0,0,1-.41-.88,4.22,4.22,0,0,1-.16-1.23,3.21,3.21,0,0,1,.72-2.21,3.29,3.29,0,0,1,2.11-1v-1.61h1.84v1.63a3,3,0,0,1,1.83.9,3.51,3.51,0,0,1,.79,2.09h-2.07a1.27,1.27,0,0,0-.41-1,2,2,0,0,0-1.16-.28,1.9,1.9,0,0,0-1.24.32,1.51,1.51,0,0,0-.37,1.15,1.75,1.75,0,0,0,.06.48,1.27,1.27,0,0,0,.15.35.75.75,0,0,0,.27.26,2.15,2.15,0,0,0,.34.17,1.66,1.66,0,0,0,.43.11l.49.07.57.09.62.09a6.47,6.47,0,0,1,.78.18,3.5,3.5,0,0,1,.69.32,2.11,2.11,0,0,1,.58.53,2.72,2.72,0,0,1,.37.82,4,4,0,0,1,.15,1.16,4.24,4.24,0,0,1-.69,2.62,3.18,3.18,0,0,1-2.18,1.1v1.57H142.8v-1.56A2.92,2.92,0,0,1,139.82,185.46Z" transform="translate(-128.33 -167.5)"/></svg>