<svg xmlns="http://www.w3.org/2000/svg" viewBox="0 0 19.47 20"><path d="M155,43.72l2.89,3.78,0,0-.06,0-.06.05-.06.07a3.3,3.3,0,0,0,.08,4.44l0,0,.05.05,2.76,3,0,0,0,0a3.86,3.86,0,0,0,2.7,1.1,3.21,3.21,0,0,0,1.93-.6l3.21,3.06c-1.81,1.39-2.71,1.6-3.4,1.6h-.28c-3.37-.22-11.7-9-11.76-13.26a4.72,4.72,0,0,1,1.68-3.2l.24-.25m0-1.78a1,1,0,0,0-.79.36l-.06.08c-.84,1-2.63,2.43-2.6,4.81.06,4.89,8.88,14.46,13.17,14.73l.37,0c1.21,0,2.49-.44,4.74-2.25a1,1,0,0,0,.11-1.55L166,54.39a1.09,1.09,0,0,0-.63-.27h-.06a1,1,0,0,0-.66.24c-.07.07-.24.2-.24.2a1.62,1.62,0,0,1-1,.32,2.36,2.36,0,0,1-1.66-.68l-2.76-3a1.83,1.83,0,0,1-.15-2.52c.25-.22.16-.19.4-.41a1,1,0,0,0,.09-1.4l-3.45-4.54a1,1,0,0,0-.77-.41Z" transform="translate(-151.56 -41.94)" fill="#currentColor"/><path d="M170.75,49.57a1,1,0,0,1-1.33,0l-5.32-5.33a.94.94,0,0,1,0-1.33,1,1,0,0,1,1.33,0l5.32,5.33A.94.94,0,0,1,170.75,49.57Z" transform="translate(-151.56 -41.94)" fill="#currentColor"/><path d="M167,51.76a.94.94,0,0,1-1.33,0L161.9,48a.94.94,0,0,1,0-1.33,1,1,0,0,1,1.33,0l3.8,3.81A.94.94,0,0,1,167,51.76Z" transform="translate(-151.56 -41.94)" fill="#currentColor"/></svg>