<svg xmlns="http://www.w3.org/2000/svg" viewBox="0 0 25.47 30.67"><path d="M170.57,156.08a4.1,4.1,0,1,1-4.1,4.1,4.1,4.1,0,0,1,4.1-4.1m0-2a6.1,6.1,0,1,0,6.09,6.1,6.1,6.1,0,0,0-6.09-6.1Z" transform="translate(-163.33 -154.08)"/><path d="M175.8,170.29v5.54a1.16,1.16,0,0,1-1.1,1.14l-1.91.08v5.7h-4.45v-5.7l-1.91-.08a1.17,1.17,0,0,1-1.1-1.14v-5.54H175.8m.49-2H164.84a1.52,1.52,0,0,0-1.51,1.51v6a3.17,3.17,0,0,0,3,3.14v4.5a1.29,1.29,0,0,0,1.28,1.28h5.89a1.29,1.29,0,0,0,1.28-1.28V179a3.16,3.16,0,0,0,3-3.14v-6a1.52,1.52,0,0,0-1.51-1.51Z" transform="translate(-163.33 -154.08)"/><path d="M181.57,156.08a4.1,4.1,0,1,1-3.29,6.51,7.92,7.92,0,0,1-.93,2,6,6,0,0,0,4.22,1.71,6.1,6.1,0,1,0-4.22-10.49,7.93,7.93,0,0,1,.94,2A4.08,4.08,0,0,1,181.57,156.08Z" transform="translate(-163.33 -154.08)"/><path d="M187.29,168.29h-7.85a3.5,3.5,0,0,1,.36,1.51v.49h7v5.54a1.16,1.16,0,0,1-1.1,1.14l-1.91.08v5.7h-4.45v-4.81a5,5,0,0,1-2,2.26v3.27a1.29,1.29,0,0,0,1.29,1.28h5.88a1.29,1.29,0,0,0,1.28-1.28V179a3.16,3.16,0,0,0,3-3.14v-6A1.52,1.52,0,0,0,187.29,168.29Z" transform="translate(-163.33 -154.08)"/></svg>