<svg xmlns="http://www.w3.org/2000/svg" viewBox="0 0 34 20.38"><path d="M136.15,379.35c1.14,0,1.14-1.63,1.14-2.26a2.44,2.44,0,0,1,2.26-2.27c1.13,0,3.07,1.95,4.53,3.4,1.13,1.13,1.13,1.13,2.26,1.13h3.4a2.29,2.29,0,0,0,2.26-2.26c0-.71-.78-1.91-3.4-4.53-2.26-2.26-3.42-1.09,0-5.66,2.09-2.78,3.61-5.3,3.35-6s-6-1.8-6.74-.77a43.83,43.83,0,0,0-3.4,5.66c-1.13,2.26-1.24,3.4-2.26,3.4s-1.13-2.2-1.13-3.4c0-3.74.54-6.39-1.13-6.79h-3.4a6.62,6.62,0,0,0-3.4,1.13s-1.4,1.1-1.13,1.13,2.27-.47,2.27,1.13v2.27s0,4.53-1.14,4.53-3.39-4.53-5.65-7.93c-.89-1.33-1.13-1.13-2.27-1.13s-2.26.05-3.39.05-1.28.72-1.13,1.08c2.26,5.66,3.89,9.22,8.19,13.69,3.94,4.11,6.58,4.33,8.78,4.42C135.59,379.38,135,379.35,136.15,379.35Z" transform="translate(-118 -358.98)"/></svg>