<svg xmlns="http://www.w3.org/2000/svg" viewBox="0 0 52 42.71"><path d="M161.08,203.5l-21.91-33.79a2.49,2.49,0,0,0-2-1.2l.2,0-.12,0H137l-.13,0,.21,0a2.44,2.44,0,0,0-2,1.2L113.17,203.5a4.4,4.4,0,0,0-.85,4,2.81,2.81,0,0,0,2.15,1.66,1.72,1.72,0,0,0,.41.07h44.49a2.38,2.38,0,0,0,.5-.09,2.75,2.75,0,0,0,2.06-1.64A4.4,4.4,0,0,0,161.08,203.5Z" transform="translate(-111.13 -167.5)" fill="none" stroke="currentColor" stroke-miterlimit="10" stroke-width="2"/><rect x="24.88" y="12.5" width="2" height="18" rx="1" fill="currentColor"/><circle cx="25.87" cy="34.5" r="1" fill="currentColor"/></svg>