<svg xmlns="http://www.w3.org/2000/svg" viewBox="0 0 20.74 20.74"><path d="M185.43,304.58a10.14,10.14,0,0,0-10.18,10.1,10,10,0,0,0,1.46,5.22l-1.84,5.42,5.64-1.79a10.13,10.13,0,1,0,4.92-18.95Zm5.81,14a2.87,2.87,0,0,1-1.91,1.34c-.52,0-.52.42-3.39-.7a11.53,11.53,0,0,1-4.83-4.24,5.36,5.36,0,0,1-1.16-2.9,3.13,3.13,0,0,1,1-2.34,1.05,1.05,0,0,1,.75-.35h.52c.17,0,.43-.07.66.49s.8,1.94.87,2.08a.5.5,0,0,1,0,.49,2,2,0,0,1-.28.47c-.15.17-.3.37-.43.49s-.29.3-.12.58a8.46,8.46,0,0,0,1.57,1.94,7.87,7.87,0,0,0,2.27,1.39c.29.14.45.12.62-.07s.7-.82.89-1.1.38-.23.64-.14,1.65.77,1.93.91.47.21.54.33A2.35,2.35,0,0,1,191.24,318.55Z" transform="translate(-174.87 -304.58)"/></svg>