<svg xmlns="http://www.w3.org/2000/svg" viewBox="0 0 31.69 22.27"><path d="M185.45,418.3c-3.56-.12-6.95-.2-10.33-.33a13.43,13.43,0,0,1-2.19-.31,3.65,3.65,0,0,1-2.73-2.44,13,13,0,0,1-.62-3.26,65.83,65.83,0,0,1-.11-7.82,19,19,0,0,1,.5-4.38,4.47,4.47,0,0,1,1.21-2.31,4,4,0,0,1,2.56-1.09c2.67-.13,5.33-.29,8-.32,3.59,0,7.19,0,10.78.08a42.73,42.73,0,0,1,4.66.31,3.63,3.63,0,0,1,3,2.35,11.16,11.16,0,0,1,.69,3.28,62.55,62.55,0,0,1,.11,8.44,18.54,18.54,0,0,1-.54,4.25,3.93,3.93,0,0,1-3.08,3,10.47,10.47,0,0,1-1.94.21ZM182,411.21l8.52-4.42L182,402.33Z" transform="translate(-169.4 -396.03)"/></svg>