<svg
 xmlns="http://www.w3.org/2000/svg"
 xmlns:xlink="http://www.w3.org/1999/xlink"
 width="208px" height="13px">
<path fill-rule="evenodd"  fill="rgb(255, 221, 48)"
 d="M11.646,0.645 L12.353,1.353 L1.354,12.353 L0.646,11.645 L11.646,0.645 Z"/>
<path fill-rule="evenodd"  fill="rgb(255, 221, 48)"
 d="M24.646,0.645 L25.354,1.353 L14.353,12.353 L13.646,11.645 L24.646,0.645 Z"/>
<path fill-rule="evenodd"  fill="rgb(255, 221, 48)"
 d="M37.646,0.645 L38.353,1.353 L27.353,12.353 L26.646,11.645 L37.646,0.645 Z"/>
<path fill-rule="evenodd"  fill="rgb(255, 221, 48)"
 d="M50.646,0.645 L51.353,1.353 L40.354,12.353 L39.646,11.645 L50.646,0.645 Z"/>
<path fill-rule="evenodd"  fill="rgb(255, 221, 48)"
 d="M63.646,0.645 L64.353,1.353 L53.353,12.353 L52.646,11.645 L63.646,0.645 Z"/>
<path fill-rule="evenodd"  fill="rgb(255, 221, 48)"
 d="M76.646,0.645 L77.354,1.353 L66.353,12.353 L65.646,11.645 L76.646,0.645 Z"/>
<path fill-rule="evenodd"  fill="rgb(255, 221, 48)"
 d="M89.646,0.645 L90.353,1.353 L79.353,12.353 L78.646,11.645 L89.646,0.645 Z"/>
<path fill-rule="evenodd"  fill="rgb(255, 221, 48)"
 d="M102.646,0.645 L103.353,1.353 L92.354,12.353 L91.646,11.645 L102.646,0.645 Z"/>
<path fill-rule="evenodd"  fill="rgb(255, 221, 48)"
 d="M115.646,0.645 L116.353,1.353 L105.353,12.353 L104.646,11.645 L115.646,0.645 Z"/>
<path fill-rule="evenodd"  fill="rgb(255, 221, 48)"
 d="M128.646,0.645 L129.354,1.353 L118.353,12.353 L117.646,11.645 L128.646,0.645 Z"/>
<path fill-rule="evenodd"  fill="rgb(255, 221, 48)"
 d="M141.646,0.645 L142.353,1.353 L131.353,12.353 L130.646,11.645 L141.646,0.645 Z"/>
<path fill-rule="evenodd"  fill="rgb(255, 221, 48)"
 d="M154.646,0.645 L155.353,1.353 L144.354,12.353 L143.646,11.645 L154.646,0.645 Z"/>
<path fill-rule="evenodd"  fill="rgb(255, 221, 48)"
 d="M167.646,0.645 L168.354,1.353 L157.353,12.353 L156.646,11.645 L167.646,0.645 Z"/>
<path fill-rule="evenodd"  fill="rgb(255, 221, 48)"
 d="M180.646,0.645 L181.354,1.353 L170.353,12.353 L169.646,11.645 L180.646,0.645 Z"/>
<path fill-rule="evenodd"  fill="rgb(255, 221, 48)"
 d="M193.646,0.645 L194.353,1.353 L183.354,12.353 L182.646,11.645 L193.646,0.645 Z"/>
<path fill-rule="evenodd"  fill="rgb(255, 221, 48)"
 d="M206.646,0.645 L207.353,1.353 L196.354,12.353 L195.646,11.645 L206.646,0.645 Z"/>
</svg>