<svg xmlns="http://www.w3.org/2000/svg" width="80" height="79.99" viewBox="0 0 80 79.99"><path d="M599.72,110l-9.61,9.6,5.81,5.86a2.34,2.34,0,0,0,3.3,0l6.41-6.25a2.34,2.34,0,0,0,0-3.33Z" transform="translate(-526.33 -46.17)" fill="#111"/><path d="M606.33,63.6c0,48.56,0,46.35,0,46.36l-9.22-9.2a11.46,11.46,0,0,0-16.27,16.13l2.83,2.85s-49.84,0-49.82,0a7.5,7.5,0,0,1,0-15h5a2.35,2.35,0,0,0,2.35-2.35V60.07H575s.48-.46-11.1,11.12a7,7,0,0,0-1.35,1.89L555,88a7,7,0,0,0,1.32,8.11c.16.16.12.11.13.13,0,9.21,0,8.81,0,8.81-5.52,0-5.3,0-5.3,0,0-31.72,0-30.31,0-30.31h2.58a2.38,2.38,0,0,0,2.41-2.23,2.34,2.34,0,0,0-2.34-2.45h-5a2.35,2.35,0,0,0-2.35,2.35v35a2.35,2.35,0,0,0,2.35,2.35h20a2.36,2.36,0,0,0,2.36-2.35v-5.07a2.4,2.4,0,0,0-2.24-2.42,2.34,2.34,0,0,0-2.45,2.34c0,2.93,0,2.82,0,2.82-5.52,0-5.3,0-5.3,0V98.19a7.1,7.1,0,0,0,3.3-.74C579.43,90,580,89.7,580.21,89.53c.88-.58-1,1.22,26.12-25.93Z" transform="translate(-526.33 -46.17)" fill="#111"/><path d="M568.83,72.84l10.82,10.82,20.43-20.43L589.27,52.41,568.83,72.84Z" transform="translate(-526.33 -46.17)" fill="#111"/><path d="M593.78,104.07a6.76,6.76,0,0,0-9.61,9.52l2.65,2.68,9.58-9.58Z" transform="translate(-526.33 -46.17)" fill="#111"/><path d="M559.24,90.11a2.34,2.34,0,0,0,3.14,3.15l13.49-6.75L566,76.62Z" transform="translate(-526.33 -46.17)" fill="#111"/><path d="M536.49,100.07V52.57h-.78a9.38,9.38,0,0,0-9.38,9.37v40.67a12.31,12.31,0,0,1,7.5-2.54Z" transform="translate(-526.33 -46.17)" fill="#111"/><path d="M604.08,59.22a7.64,7.64,0,0,0-10.81-10.81l-.69.68L603.4,59.91Z" transform="translate(-526.33 -46.17)" fill="#111"/></svg>