<svg xmlns="http://www.w3.org/2000/svg" width="80" height="80" viewBox="0 0 80 80"><path d="M584.12,473l-5.33,5.33h0l-36.85-36.85,2.83-2.83L533,429.19l-6.7,6.7,9.47,11.74,2.83-2.83,36.85,36.85L570.14,487l7.61,7.61,14-14Z" transform="translate(-526.33 -429.19)" fill="#111"/><path d="M595.05,483.92l-14,14,8.39,8.39a9.89,9.89,0,1,0,14-14Z" transform="translate(-526.33 -429.19)" fill="#111"/><path d="M566.82,479.62,555.9,468.7l-8,8a16.62,16.62,0,1,0,10.93,10.93Zm-20.06,16.75a5.38,5.38,0,1,1,0-7.61A5.38,5.38,0,0,1,546.76,496.37Z" transform="translate(-526.33 -429.19)" fill="#111"/><path d="M605.24,439.21l-1.3-3.33-8.39,8.38-3.38-.91-.91-3.38,8.38-8.39-3.33-1.3a15.79,15.79,0,0,0-21,19l-9.5,9.5,10.93,10.92,9.49-9.5a15.67,15.67,0,0,0,4.28.59,15.78,15.78,0,0,0,14.7-21.56Z" transform="translate(-526.33 -429.19)" fill="#111"/></svg>