<svg xmlns="http://www.w3.org/2000/svg" width="28.06mm" height="28.21mm" viewBox="0 0 79.55 79.95"><path d="M273.47,107.24v-5.61a1.83,1.83,0,0,0-1.83-1.82H268.1a1.82,1.82,0,0,0-1.82,1.77c.11,1,1.26,11,1.43,14.59a1.87,1.87,0,0,0,1.82,1.87h1.05a3.84,3.84,0,0,1-.46-1.82v-5.17A3.85,3.85,0,0,1,273.47,107.24Z" transform="translate(-232 -47)" fill="#111"/><path d="M305.68,116.22v-5.17a1.83,1.83,0,0,0-1.83-1.82H274a1.83,1.83,0,0,0-1.82,1.82v5.17A1.83,1.83,0,0,0,274,118h29.88A1.83,1.83,0,0,0,305.68,116.22Z" transform="translate(-232 -47)" fill="#111"/><path d="M306.18,99.81a1.83,1.83,0,0,0-1.82,1.82v5.61a3.85,3.85,0,0,1,3.34,3.81v5.17a3.73,3.73,0,0,1-.46,1.82h1.05a1.88,1.88,0,0,0,1.83-1.87c.17-3.55,1.32-13.6,1.43-14.59a1.82,1.82,0,0,0-1.82-1.77Z" transform="translate(-232 -47)" fill="#111"/><path d="M272.81,119.89a4.2,4.2,0,0,1-1.17.18h-.91l-1.48,5.61a1,1,0,0,0,.73,1.24,1.07,1.07,0,0,0,.25,0,1,1,0,0,0,1-.75l1.66-6.3Z" transform="translate(-232 -47)" fill="#111"/><path d="M307.1,120.07h-.92a4.08,4.08,0,0,1-1.16-.18H305l1.65,6.3a1,1,0,0,0,1,.75,1.15,1.15,0,0,0,.26,0,1,1,0,0,0,.72-1.24Z" transform="translate(-232 -47)" fill="#111"/><path d="M305.78,86.69a2.24,2.24,0,0,0-1.61-.69H273.66a2.25,2.25,0,0,0-1.62.69,2,2,0,0,0-.57,1.45c.07,1.61.35,5.6.67,9.68a3.84,3.84,0,0,1,3.35,3.81v5.57h26.84v-5.57a3.86,3.86,0,0,1,3.29-3.81c.33-4.08.67-8.07.73-9.68A2,2,0,0,0,305.78,86.69Zm-21.27,14.62h-.61a1,1,0,0,1,0-2h.61a1,1,0,0,1,0,2Zm0-7.5h-.61a1,1,0,1,1,0-2h.61a1,1,0,0,1,0,2Zm9.42,7.5h-.61a1,1,0,0,1,0-2h.61a1,1,0,0,1,0,2Zm0-7.5h-.61a1,1,0,1,1,0-2h.61a1,1,0,0,1,0,2Z" transform="translate(-232 -47)" fill="#111"/><rect y="33" width="17" height="12" fill="#111"/><path d="M250,80V93H232v13.06a3.93,3.93,0,0,0,3.94,3.94H262V80Z" transform="translate(-232 -47)" fill="#111"/><rect x="45" y="33" width="18" height="4" fill="#111"/><path d="M263,80v30h2.17c-.37-3.7-.8-7.52-.88-8.19l0-.14v-.15a3.79,3.79,0,0,1,3.82-3.71h2c-.26-3.44-.59-7.83-.65-9.59a4,4,0,0,1,1.12-2.92,4.26,4.26,0,0,1,3.06-1.3H276V80Z" transform="translate(-232 -47)" fill="#111"/><path d="M291.06,47H235.94A3.93,3.93,0,0,0,232,50.94V79h63V50.94A3.93,3.93,0,0,0,291.06,47Zm-30.6,20.12-.74-1.26a10.43,10.43,0,0,1-.82-1.65c-.09.21-.22.5-.41.87s-.34.64-.45.81l-.73,1.23h-2l2.53-4.27-2.43-4.13h2.05L258.2,60c.1.17.23.43.4.77a5.45,5.45,0,0,1,.31.7c.06-.15.17-.4.33-.74s.3-.59.41-.77l.74-1.25h2L260,62.83l2.57,4.29Zm10.83-1.74a3.65,3.65,0,0,1-.85,2.65,3.6,3.6,0,0,1-2.62.84,4.66,4.66,0,0,1-2-.37,2.58,2.58,0,0,1-1.17-1.26,5.83,5.83,0,0,1-.42-2.34h2.17a3.51,3.51,0,0,0,.34,1.63,1.18,1.18,0,0,0,1.09.48,1.24,1.24,0,0,0,1.08-.42,2.34,2.34,0,0,0,.3-1.32v-.74a2.21,2.21,0,0,0-.29-1.3,1.24,1.24,0,0,0-1.08-.4h-3.54v-5.7h6.4v1.95h-4.31v1.86h1.47a3.53,3.53,0,0,1,2.6.84,3.63,3.63,0,0,1,.84,2.65Z" transform="translate(-232 -47)" fill="#111"/></svg>