<svg xmlns="http://www.w3.org/2000/svg" width="80" height="76" viewBox="0 0 80 76"><ellipse cx="66.07" cy="72.74" rx="3.27" ry="3.26" fill="#111"/><path d="M498.88,209.89a1,1,0,0,0-.15-.14l-.14-.14a.31.31,0,0,0-.09-.07,10.7,10.7,0,0,0-14.74.34l-.47.48-.65.65a2,2,0,0,0,2.9,2.89l1.13-1.12a6.6,6.6,0,0,1,9.31,0l.82.78a2,2,0,0,0,2.87,0,2.06,2.06,0,0,0,.6-1.43,2,2,0,0,0-.6-1.43Z" transform="translate(-425 -145)" fill="#111"/><path d="M504.46,205.86l-.68-.68a0,0,0,0,1,0,0l-.54-.54a2.25,2.25,0,0,0-.3-.24,17.86,17.86,0,0,0-24.06.55l-.1.08-1.23,1.23a1.87,1.87,0,0,0,2.65,2.64l1.23-1.22,0,0a14.09,14.09,0,0,1,19.4-.11l1,1a1.87,1.87,0,0,0,2.65-2.64Z" transform="translate(-425 -145)" fill="#111"/><path d="M465.5,176a2.4,2.4,0,1,0-2.35-2.4A2.38,2.38,0,0,0,465.5,176Z" transform="translate(-425 -145)" fill="#111"/><path d="M465.5,185.6a12,12,0,1,0-11.73-12A11.88,11.88,0,0,0,465.5,185.6Zm0-19.2a7.2,7.2,0,1,1-7,7.2A7.13,7.13,0,0,1,465.5,166.4Z" transform="translate(-425 -145)" fill="#111"/><path d="M435,168.8c0,17.2,13.68,31.2,30.5,31.2S496,186,496,168.8V152H435Zm30.5-12a16.8,16.8,0,1,1-16.42,16.8A16.64,16.64,0,0,1,465.5,156.8Z" transform="translate(-425 -145)" fill="#111"/><path d="M425,146.67c0,1.84,2.1,3.33,4.69,3.33h70.62c2.59,0,4.69-1.49,4.69-3.33V145H425Z" transform="translate(-425 -145)" fill="#111"/><path d="M443,200H428a3,3,0,0,0-3,3v15a3,3,0,0,0,3,3h15a3,3,0,0,0,3-3V203A3,3,0,0,0,443,200Zm-3,9.08a3.67,3.67,0,0,1-1.16,3,5.43,5.43,0,0,1-3.53,1h-.92v4H432V204h3.33a5.58,5.58,0,0,1,3.54.92,3.61,3.61,0,0,1,1.13,3Z" transform="translate(-425 -145)" fill="#111"/><path d="M436.76,206.35a3.52,3.52,0,0,0-1.41-.22h-1v4.64h.95a2.83,2.83,0,0,0,1.79-.43,1.69,1.69,0,0,0,.52-1.38v-1a2.54,2.54,0,0,0-.18-1.05A1.22,1.22,0,0,0,436.76,206.35Z" transform="translate(-425 -145)" fill="#111"/></svg>