<svg xmlns="http://www.w3.org/2000/svg" width="68.12" height="80" viewBox="0 0 68.12 80"><path d="M670.84,262.94a15.24,15.24,0,1,0,15.24,15.24A15.26,15.26,0,0,0,670.84,262.94Zm9,12.37L669,286.23a2.34,2.34,0,0,1-3.32,0l-4.17-4.17a2.35,2.35,0,1,1,3.32-3.32l2.51,2.51,9.26-9.26a2.35,2.35,0,1,1,3.32,3.32Z" transform="translate(-636.78 -238.18)" fill="#111"/><path d="M704.83,259.89v-.07c0-.76-.06-1.58-.07-2.48a8.48,8.48,0,0,0-8-8.31c-9.2-.51-16.32-3.51-22.4-9.44l0-.05a5.14,5.14,0,0,0-7,0l-.05.05c-6.08,5.93-13.19,8.93-22.39,9.44a8.48,8.48,0,0,0-8,8.31c0,.9,0,1.71-.08,2.48V260c-.18,9.38-.4,21,3.5,31.65A40.29,40.29,0,0,0,650,306.67a50.57,50.57,0,0,0,18.91,11.19,6.37,6.37,0,0,0,.78.21,5.81,5.81,0,0,0,2.25,0,6.9,6.9,0,0,0,.78-.21,50.62,50.62,0,0,0,18.89-11.2,40.37,40.37,0,0,0,9.67-15.06C705.23,281,705,269.28,704.83,259.89Zm-34,38.23a19.94,19.94,0,1,1,19.94-19.94A20,20,0,0,1,670.84,298.12Z" transform="translate(-636.78 -238.18)" fill="#111"/></svg>