<svg xmlns="http://www.w3.org/2000/svg" width="80" height="71" viewBox="0 0 80 71"><circle cx="16" cy="36" r="1" fill="#111"/><path d="M257.33,346H238.67a2.66,2.66,0,0,0-2.67,2.65v63.7a2.6,2.6,0,0,0,1,2V417h4v-2h14v2h4v-2.6a2.6,2.6,0,0,0,1-2v-63.7A2.66,2.66,0,0,0,257.33,346ZM244,354h8a1.33,1.33,0,0,1,0,2.66h-8a1.33,1.33,0,0,1,0-2.66Zm0,5.31h8a1.33,1.33,0,1,1,0,2.65h-8a1.33,1.33,0,1,1,0-2.65Zm0,5.31h8a1.33,1.33,0,1,1,0,2.65h-8a1.33,1.33,0,1,1,0-2.65ZM245.33,411h-4a1.33,1.33,0,0,1-1.33-1.33v-5.31a1.34,1.34,0,0,1,2.67,0v4h2.66a1.33,1.33,0,1,1,0,2.65Zm8-22.56a1.33,1.33,0,0,1-2.66,0v-2.9a4,4,0,1,1,2.66,0Z" transform="translate(-236 -346)" fill="#111"/><circle cx="44" cy="36" r="1" fill="#111"/><path d="M285.33,346H266.67a2.66,2.66,0,0,0-2.67,2.65v63.7a2.6,2.6,0,0,0,1,2V417h4v-2h14v2h4v-2.6a2.6,2.6,0,0,0,1-2v-63.7A2.66,2.66,0,0,0,285.33,346ZM272,354h8a1.33,1.33,0,0,1,0,2.66h-8a1.33,1.33,0,0,1,0-2.66Zm0,5.31h8a1.33,1.33,0,1,1,0,2.65h-8a1.33,1.33,0,1,1,0-2.65Zm-1.33,6.63a1.32,1.32,0,0,1,1.33-1.32h8a1.33,1.33,0,1,1,0,2.65h-8A1.32,1.32,0,0,1,270.67,365.9Zm10.66,22.56a1.33,1.33,0,0,1-2.66,0v-2.9a4,4,0,1,1,2.66,0Z" transform="translate(-236 -346)" fill="#111"/><path d="M313.33,346H294.67a2.66,2.66,0,0,0-2.67,2.65v63.7a2.6,2.6,0,0,0,1,2V417h4v-2h14v2h4v-2.6a2.6,2.6,0,0,0,1-2v-63.7A2.66,2.66,0,0,0,313.33,346ZM300,354h8a1.33,1.33,0,0,1,0,2.66h-8a1.33,1.33,0,0,1,0-2.66Zm0,5.31h8a1.33,1.33,0,1,1,0,2.65h-8a1.33,1.33,0,1,1,0-2.65Zm-1.33,6.63a1.32,1.32,0,0,1,1.33-1.32h8a1.33,1.33,0,1,1,0,2.65h-8A1.32,1.32,0,0,1,298.67,365.9Zm10.66,22.56a1.33,1.33,0,0,1-2.66,0v-2.9a4,4,0,1,1,2.66,0Z" transform="translate(-236 -346)" fill="#111"/><circle cx="72" cy="36" r="1" fill="#111"/></svg>