<svg xmlns="http://www.w3.org/2000/svg" width="80" height="69" viewBox="0 0 80 69"><path d="M416.65,251.13c-1.3,0-2.65.58-2.65,1.87v7h-5v-3c0-4.74-3.43-9-8.19-9H353c5.19,0,10,3.83,10,9v41h46V265h8a1.92,1.92,0,0,0,2-2.16v-9.37A2.34,2.34,0,0,0,416.65,251.13Z" transform="translate(-339 -248)" fill="#111"/><path d="M351.25,307H358V265.19h-9v39.44A2.31,2.31,0,0,0,351.25,307Z" transform="translate(-339 -248)" fill="#111"/><path d="M353.5,253a4.35,4.35,0,0,0-4.5,4.2V260h9v-2.8A4.35,4.35,0,0,0,353.5,253Z" transform="translate(-339 -248)" fill="#111"/><path d="M363,301h46v7H363Z" transform="translate(-339 -248)" fill="#111"/><path d="M365.3,317h41.4a2.17,2.17,0,0,0,2.3-2v-4H363v4A2.17,2.17,0,0,0,365.3,317Z" transform="translate(-339 -248)" fill="#111"/><path d="M341.35,251.12c1.3,0,2.65.88,2.65,1.88v7h5v5h-8a1.92,1.92,0,0,1-2-2.16v-9.37A2.35,2.35,0,0,1,341.35,251.12Z" transform="translate(-339 -248)" fill="#111"/></svg>