<svg xmlns="http://www.w3.org/2000/svg" width="80" height="80" viewBox="0 0 80 80"><path d="M702.1,158.89a40,40,0,1,0,11.71,28.28A39.78,39.78,0,0,0,702.1,158.89Zm-28.29,60.43a32.18,32.18,0,0,1-32.15-32.15V187a32.2,32.2,0,0,1,31.71-32h.44a32.15,32.15,0,1,1,0,64.29Z" transform="translate(-633.81 -147.17)" fill="#111"/><path d="M698.23,189.11a2.37,2.37,0,0,1,0-4.74h2.85a27.44,27.44,0,0,0-25.23-24.53v2.48a2.37,2.37,0,1,1-4.73,0v-2.43a27.46,27.46,0,0,0-24.61,24.81h2.55a2.37,2.37,0,1,1,0,4.73h-2.57a27.46,27.46,0,0,0,25,25.06v-3a2.37,2.37,0,1,1,4.74,0v3a27.46,27.46,0,0,0,25-25.38Zm-14.84-8.17-7.9,7.91a2.4,2.4,0,0,1-1.68.69,2.36,2.36,0,0,1-1.67-.69l-13.77-13.77a2.37,2.37,0,0,1,3.35-3.34l12.09,12.09,6.24-6.24a2.37,2.37,0,1,1,3.34,3.35Z" transform="translate(-633.81 -147.17)" fill="#111"/></svg>