<svg xmlns="http://www.w3.org/2000/svg" width="80" height="67.61" viewBox="0 0 80 67.61"><path d="M598.4,291.43h-3.19a4.57,4.57,0,0,1,.67-1.6,11.51,11.51,0,0,0,1.67-4.93,13.66,13.66,0,0,1,.64-2.76,5.37,5.37,0,0,1,1.58-2.13l2.21,5.43,4.35-1.77-7.88-19.48-1.91.39a13.75,13.75,0,0,0-8.62,7.14c-2.36,4.37-7.68,7.76-14.14,9.12l-1.29-4.73-2.3.67a36.44,36.44,0,0,0-9.39,4.12l-.06.07-8.92,12h-7.33s-4.11-5.59-6.45-8.72a10.31,10.31,0,0,0-3.46,2.18,10.92,10.92,0,0,0-2.75,10.08l-5.5,3.66,6.5,11.76H536l2.43-2.74A13,13,0,0,1,556.63,308a14.75,14.75,0,0,0,7.78,3.9c2.83.31,4.54-.38,6.82-1.11a10.63,10.63,0,0,1,5.32-.84,19.74,19.74,0,0,0,2.64.19c4.48,0,6.63-1.87,8.32-4.65a4,4,0,0,1,2.18-1.76c2-.64,3.91,1.75,3.91,1.75l4.44-2.18a19.74,19.74,0,0,1,1.19,6.77h4.7a24.53,24.53,0,0,0-1.75-9.12Z" transform="translate(-526.33 -244.38)" fill="#111"/><path d="M546.87,288.26h2.56L557,278.12c3.19-4.18,7.57-9.91,7.57-17.32a16.43,16.43,0,0,0-32.86,0c0,7.41,4.38,13.14,7.58,17.32Zm-6.54-27.46a7.82,7.82,0,1,1,7.82,7.83A7.83,7.83,0,0,1,540.33,260.8Z" transform="translate(-526.33 -244.38)" fill="#111"/><circle cx="21.83" cy="16.43" r="3.12" fill="#111"/></svg>