<svg xmlns="http://www.w3.org/2000/svg" width="80" height="80" viewBox="0 0 80 80"><path d="M526.37,187.17l3.89,3.89h0a50.8,50.8,0,0,0,18.6,11.87,23.47,23.47,0,0,1,0-31.51,50.8,50.8,0,0,0-18.6,11.87Z" transform="translate(-526.33 -147.17)" fill="#111"/><path d="M583.81,171.42a23.47,23.47,0,0,1,0,31.51,50.8,50.8,0,0,0,18.6-11.87l3.89-3.89-3.89-3.88a50.8,50.8,0,0,0-18.6-11.87Z" transform="translate(-526.33 -147.17)" fill="#111"/><path d="M566.33,182.47a4.71,4.71,0,1,0,4.71,4.7A4.72,4.72,0,0,0,566.33,182.47Z" transform="translate(-526.33 -147.17)" fill="#111"/><path d="M585.17,187.17a18.85,18.85,0,0,0-18.84-18.82c-25,1-25,36.62,0,37.65A18.86,18.86,0,0,0,585.17,187.17Zm-18.84,9.42a9.44,9.44,0,0,1-9.42-9.42c.52-12.48,18.33-12.48,18.84,0A9.43,9.43,0,0,1,566.33,196.59Z" transform="translate(-526.33 -147.17)" fill="#111"/><path d="M531,160.89V167l4.71,5.82a53.34,53.34,0,0,1,4.71-2.78v-.28L535.72,165v-4.13a7.06,7.06,0,1,0-4.71,0Z" transform="translate(-526.33 -147.17)" fill="#111"/><path d="M601.66,213.46v-6.08L597,202.67v-1.11c-1.53,1-3.1,1.93-4.71,2.78v.28l4.71,4.71v4.13a7.06,7.06,0,1,0,4.71,0Z" transform="translate(-526.33 -147.17)" fill="#111"/><path d="M601.66,167v-6.08a7.06,7.06,0,1,0-4.71,0V165l-4.71,4.71V170a53.34,53.34,0,0,1,4.71,2.78Z" transform="translate(-526.33 -147.17)" fill="#111"/><path d="M578.11,164.9c1.59.34,3.16.74,4.71,1.22v-1.5l4.71-4.71V147.17h-4.71V158l-4.71,4.71Z" transform="translate(-526.33 -147.17)" fill="#111"/><path d="M573.4,159.91l4.71-4.7v-8H573.4v6.09l-4.71,4.7v5.75q2.37.09,4.71.39Z" transform="translate(-526.33 -147.17)" fill="#111"/><path d="M559.27,164.1c1.55-.2,3.13-.33,4.71-.39V158l-4.71-4.7v-6.09h-4.71v8l4.71,4.7Z" transform="translate(-526.33 -147.17)" fill="#111"/><path d="M549.85,166.12c1.55-.48,3.12-.88,4.71-1.22v-2.23L549.85,158V147.17h-4.71v12.74l4.71,4.71Z" transform="translate(-526.33 -147.17)" fill="#111"/><path d="M535.72,202.67,531,207.38v6.08a7.06,7.06,0,1,0,4.71,0v-4.13l4.71-4.71v-.28c-1.61-.85-3.18-1.77-4.71-2.78Z" transform="translate(-526.33 -147.17)" fill="#111"/><path d="M554.56,209.45c-1.59-.34-3.16-.75-4.71-1.22v1.5l-4.71,4.7v12.74h4.71V216.38l4.71-4.7Z" transform="translate(-526.33 -147.17)" fill="#111"/><path d="M559.27,214.44l-4.71,4.7v8h4.71v-6.08l4.71-4.71v-5.74c-1.58-.06-3.16-.19-4.71-.39Z" transform="translate(-526.33 -147.17)" fill="#111"/><path d="M573.4,210.25q-2.34.3-4.71.39v5.74l4.71,4.71v6.08h4.71v-8l-4.71-4.7Z" transform="translate(-526.33 -147.17)" fill="#111"/><path d="M582.82,208.23c-1.55.47-3.12.88-4.71,1.22v2.23l4.71,4.7v10.79h4.71V214.44l-4.71-4.71Z" transform="translate(-526.33 -147.17)" fill="#111"/></svg>