<svg xmlns="http://www.w3.org/2000/svg" width="80" height="69" viewBox="0 0 80 69"><path d="M359,196H395v9H359Z" transform="translate(-337 -148)"/><path d="M359,213.6a2.37,2.37,0,0,0,2.35,2.4h31.25a2.37,2.37,0,0,0,2.34-2.4V208H359Z" transform="translate(-337 -148)"/><path d="M414.66,148H339.34a2.33,2.33,0,0,0-2.34,2.33V214.4a2.45,2.45,0,0,0,2.25,2.6h4.5a2.45,2.45,0,0,0,2.25-2.6V158h23.35a8.42,8.42,0,0,0-.94,3.88,8.56,8.56,0,0,0,6.25,8.22v5.38a7,7,0,0,0-4.69,6.59v2.33h-8.59a2.34,2.34,0,0,0-2.35,2.33V193H395v-6.29a2.34,2.34,0,0,0-2.34-2.33H384v-2.33a7,7,0,0,0-4.69-6.59v-5.38a8.56,8.56,0,0,0,6.25-8.22,8.42,8.42,0,0,0-.94-3.88H408V214.4a2.45,2.45,0,0,0,2.25,2.6h4.5a2.45,2.45,0,0,0,2.25-2.6V150.33A2.33,2.33,0,0,0,414.66,148Zm-35.32,36.38h-4.68v-2.33a2.34,2.34,0,0,1,4.68,0ZM377,165.74a3.88,3.88,0,1,1,3.91-3.88A3.9,3.9,0,0,1,377,165.74Z" transform="translate(-337 -148)" fill="#111"/></svg>