<svg xmlns="http://www.w3.org/2000/svg" width="80" height="68" viewBox="0 0 80 68"><path d="M319.86,309.68l-5-19.94a3.68,3.68,0,0,0-.35-.87,7.56,7.56,0,0,0,.44-2.53V253.47a7.48,7.48,0,0,0-7.46-7.47h-55a7.47,7.47,0,0,0-7.45,7.47v32.87a7.56,7.56,0,0,0,.44,2.53,3.68,3.68,0,0,0-.35.87l-5,20.1a3.35,3.35,0,0,0,3.24,4.16h73.32a3.34,3.34,0,0,0,3.34-3.35A3.45,3.45,0,0,0,319.86,309.68Zm-31.4-.92H271.54a.66.66,0,0,1-.51-.23.71.71,0,0,1-.14-.55l1.32-7.34a.66.66,0,0,1,.65-.54h14.28a.66.66,0,0,1,.65.54l1.31,7.29a.88.88,0,0,1,0,.17A.65.65,0,0,1,288.46,308.76Zm20-22.42a1,1,0,0,1-.56.86H252.08a1,1,0,0,1-.55-.86V253.47a.94.94,0,0,1,.94-.94h55a1,1,0,0,1,1,.94v32.87Z" transform="translate(-240 -246)" fill="#111"/><path d="M281.81,268.52l2.09-.57a1,1,0,0,0,.09-1.88l-9.62-3.66a1,1,0,0,0-1.27,1.28l3.64,9.65a1,1,0,0,0,1.88-.09l.57-2.1,4.87,4.89a1,1,0,0,0,1.4,0l1.22-1.23a1,1,0,0,0,0-1.4Z" transform="translate(-240 -246)" fill="#111"/></svg>