<svg xmlns="http://www.w3.org/2000/svg" width="79.9" height="65.34" viewBox="0 0 79.9 65.34"><path d="M506.1,293.13l-7-20.08a16.9,16.9,0,0,0-11.16-10.63,75.35,75.35,0,0,0-11.2-2.36,1.32,1.32,0,0,0-1.16.44,4,4,0,0,1-2.29,1.31,1.36,1.36,0,0,0-1.08,1.41,5.26,5.26,0,1,1-10.5,0,1.33,1.33,0,0,0-1.1-1.38,4,4,0,0,1-2.27-1.31,1.32,1.32,0,0,0-1.16-.44A74.51,74.51,0,0,0,446,262.43,16.86,16.86,0,0,0,434.81,273l-7,20.09a14.19,14.19,0,0,0,24.66,13.3,1.33,1.33,0,0,0-.52-2,9,9,0,1,1,12.36-9.93,1.32,1.32,0,0,0,1.36,1.09c.81,0,1.77,0,2.58,0a1.32,1.32,0,0,0,1.36-1.09A9,9,0,1,1,482,304.41a1.33,1.33,0,0,0-.52,2,14.19,14.19,0,0,0,24.66-13.3Zm-52.47-12.6h-4.07v4.07a1.34,1.34,0,0,1-2.67,0v-4.07h-4.07a1.34,1.34,0,0,1,0-2.67h4.07v-4.07a1.34,1.34,0,0,1,2.67,0v4.07h4.07a1.34,1.34,0,0,1,0,2.67Zm26.28,1.08a2.42,2.42,0,1,1,2.42-2.41A2.41,2.41,0,0,1,479.91,281.61Zm5.41,5.4a2.41,2.41,0,1,1,2.41-2.41A2.42,2.42,0,0,1,485.32,287Zm0-10.8a2.42,2.42,0,1,1,2.41-2.42A2.43,2.43,0,0,1,485.32,276.21Zm5.4,5.4a2.42,2.42,0,1,1,2.41-2.41A2.41,2.41,0,0,1,490.72,281.61Zm-28.93,14.53a6.33,6.33,0,1,1-6.33-6.32A6.34,6.34,0,0,1,461.79,296.14Zm23,0a6.33,6.33,0,1,1-6.32-6.32A6.34,6.34,0,0,1,484.76,296.14Zm-5.92-42.66a1.33,1.33,0,0,1-1.88,0,14.14,14.14,0,0,0-20,0,1.33,1.33,0,0,1-1.88-1.89,16.81,16.81,0,0,1,23.78,0A1.34,1.34,0,0,1,478.84,253.48Zm-5.35,3.46a1.33,1.33,0,0,1-1.88,1.89,6.58,6.58,0,0,0-9.32,0,1.33,1.33,0,0,1-1.88-1.89A9.25,9.25,0,0,1,473.49,256.94Zm-3.95,6.55a2.59,2.59,0,1,1-4.42-1.84,2.59,2.59,0,0,1,4.42,1.84Z" transform="translate(-427 -246.66)" fill="#111"/></svg>