<svg xmlns="http://www.w3.org/2000/svg" width="80" height="80" viewBox="0 0 80 80"><path d="M606.33,393.33a25.94,25.94,0,0,0-14.22-23.1A35.28,35.28,0,0,1,557.38,405a25.85,25.85,0,0,0,36.25,10.63l12.59,3.48-3.48-12.58A25.84,25.84,0,0,0,606.33,393.33Z" transform="translate(-526.33 -339.19)" fill="#111"/><path d="M587.43,369.73a30.55,30.55,0,1,0-56.86,15.53l-4.12,14.91,14.9-4.13a30.55,30.55,0,0,0,46.08-26.31Zm-35.24-7.11h-4.68a9.38,9.38,0,1,1,15.7,6.92l-4,3.65v3.65h-4.68v-5.72l5.5-5a4.61,4.61,0,0,0,1.53-3.46,4.69,4.69,0,0,0-9.38,0Zm2.35,18.91h4.68v4.69h-4.68Z" transform="translate(-526.33 -339.19)" fill="#111"/></svg>