<svg xmlns="http://www.w3.org/2000/svg" width="80" height="76.63" viewBox="0 0 80 76.63"><path d="M705.07,368.06c-1.24-3.83.46-9.2-1.87-12.39s-8-3.25-11.21-5.6-5-7.69-8.79-8.94-8.26,2.07-12.36,2.07-8.66-3.27-12.36-2.07-5.6,6.62-8.79,8.94-8.86,2.38-11.21,5.6-.63,8.56-1.87,12.39-5.77,7-5.77,11.13,4.57,7.42,5.77,11.12-.45,9.2,1.87,12.39,8,3.26,11.21,5.6,5,7.69,8.79,8.94,8.26-2.07,12.36-2.07,8.67,3.27,12.36,2.07,5.6-6.62,8.79-8.94,8.87-2.38,11.21-5.6.63-8.56,1.87-12.39,5.77-7,5.77-11.12S706.27,371.76,705.07,368.06Zm-34.23,39.31A28.19,28.19,0,1,1,699,379.19,28.18,28.18,0,0,1,670.84,407.37Z" transform="translate(-630.84 -340.87)" fill="#111"/><path d="M670.84,354.6a24.59,24.59,0,1,0,24.59,24.59A24.62,24.62,0,0,0,670.84,354.6Zm0,45.16a20.58,20.58,0,1,1,20.58-20.57A20.6,20.6,0,0,1,670.84,399.76Z" transform="translate(-630.84 -340.87)" fill="#111"/><path d="M680.09,373.35a7.85,7.85,0,0,1-2.22,6,8.21,8.21,0,0,1-5.88,2.1h-2.41v3h4.71c.29,0,.46,0,.53.12a1,1,0,0,1,.09.54v1.72a1.15,1.15,0,0,1-.09.56c-.07.09-.24.14-.53.14h-4.71v3.81c0,.26,0,.43-.14.51a.81.81,0,0,1-.52.12h-2.65a.82.82,0,0,1-.49-.1.94.94,0,0,1-.09-.53v-3.81H663.2c-.29,0-.47,0-.53-.14a1,1,0,0,1-.1-.56V385.1a.92.92,0,0,1,.1-.54c.06-.08.24-.12.53-.12h2.49v-3H663.2c-.29,0-.47,0-.53-.13a1,1,0,0,1-.1-.57v-2.06a.9.9,0,0,1,.1-.54c.06-.08.24-.12.53-.12h2.49V367a.9.9,0,0,1,.09-.52.75.75,0,0,1,.49-.1H672c3.09,0,5.22.57,6.39,1.73A7,7,0,0,1,680.09,373.35Zm-4,.19a4,4,0,0,0-1-3.09,5.22,5.22,0,0,0-3.45-.88h-2.1V378h1.91a5.12,5.12,0,0,0,3.46-1A4.41,4.41,0,0,0,676.12,373.54Z" transform="translate(-630.84 -340.87)" fill="#111"/></svg>