<svg xmlns="http://www.w3.org/2000/svg" width="110" height="80" viewBox="0 0 110 80"><rect x="88.75" y="296.62" width="1.99" height="11.95" transform="translate(-240.68 -77.25) rotate(-45)" fill="#3b3b3b"/><path d="M99.93,284.7l.33.34,0,0,7,7,0,0,.34.34a.52.52,0,0,1,0,.73L95.38,305.41,86.93,297,99.2,284.7A.52.52,0,0,1,99.93,284.7Z" transform="translate(-53 -229.34)" fill="#3b3b3b"/><path d="M85,307.65l-.26-.26a5.8,5.8,0,0,1-.53-7.57l8.36,8.36A5.8,5.8,0,0,1,85,307.65Z" transform="translate(-53 -229.34)" fill="#3b3b3b"/><rect x="139.96" y="244.41" width="7.96" height="7.96" transform="translate(-186.48 -54.8) rotate(-45)" fill="#3b3b3b"/><rect x="127.29" y="244.41" width="7.96" height="7.96" transform="translate(-190.19 -63.76) rotate(-45)" fill="#3b3b3b"/><rect x="120.96" y="250.75" width="7.96" height="7.96" transform="translate(-196.53 -66.38) rotate(-45)" fill="#3b3b3b"/><rect x="133.63" y="250.75" width="7.96" height="7.96" transform="translate(-192.82 -57.42) rotate(-45)" fill="#3b3b3b"/><rect x="133.63" y="238.08" width="7.96" height="7.96" transform="translate(-183.86 -61.13) rotate(-45)" fill="#3b3b3b"/><rect x="139.96" y="257.08" width="7.96" height="7.96" transform="translate(-195.44 -51.09) rotate(-45)" fill="#3b3b3b"/><rect x="133.63" y="263.42" width="7.96" height="7.96" transform="translate(-201.78 -53.71) rotate(-45)" fill="#3b3b3b"/><path d="M120.59,238A28.72,28.72,0,0,0,112,257.72a118.93,118.93,0,0,1-2,12c-.43,1.83-1.59,5.76-2.2,7.79L101,284.29l7,7,6.75-6.75c2-.61,6-1.77,7.78-2.21a121.45,121.45,0,0,1,12-2,28.68,28.68,0,0,0,19.75-8.63c10.57-10.57,11.57-26.69,2.24-36S131.15,227.4,120.59,238Zm-6.92,29a21.32,21.32,0,0,0,11.74,11.74c-1.19.22-2.4.47-3.56.74-2.41.57-7,1.95-7.81,2.21l-3.32-3.32c.26-.84,1.64-5.4,2.21-7.81C113.2,269.33,113.44,268.12,113.67,266.93Zm11.27-19.24,5.63-5.63-4.93-4.93.71-.7,4.92,4.93,5.63-5.63-2.81-2.82.7-.7,2.82,2.81,2.81-2.81.71.7-2.82,2.82,5.63,5.63,7-7,.71.7-7,7,5.63,5.63,7-7,.7.71-7,7,5.63,5.63,2.82-2.82.7.71-2.81,2.81,2.81,2.82-.7.7-2.82-2.82L151,261.07l4.93,4.92-.7.71-4.93-4.93-5.63,5.63,4.92,4.93-.7.7-4.93-4.93-5.63,5.64,2.82,2.81-.71.7-2.81-2.81-3.17,3.17-.35.35-.53-.53-.17-.18,3.51-3.51-5.63-5.64-7.74,7.75-.7-.71,7.74-7.74-5.63-5.63-7.74,7.74-.71-.7,7.74-7.74-5.63-5.64L115.08,259l-.17-.18-.53-.52.35-.35,3.17-3.17-2.82-2.81.71-.71L118.6,254l5.63-5.63-4.92-4.93.7-.71Z" transform="translate(-53 -229.34)" fill="#3b3b3b"/><rect x="146.3" y="250.75" width="7.96" height="7.96" transform="translate(-189.11 -48.46) rotate(-45)" fill="#3b3b3b"/><rect x="127.29" y="257.08" width="7.96" height="7.96" transform="translate(-199.15 -60.05) rotate(-45)" fill="#3b3b3b"/><path d="M92.47,275.85l.71-.71-7.74-7.74,5.63-5.63,7.74,7.74.7-.7-7.74-7.74,5.63-5.64,3.52,3.52.18-.18.52-.52-.34-.35-3.18-3.17,2.82-2.81-.7-.71L97.4,254l-5.63-5.63,4.93-4.93-.71-.71-4.92,4.93-5.63-5.63,4.92-4.93-.7-.7-4.93,4.93-5.63-5.63,2.82-2.82-.71-.7L78.4,235l-2.82-2.81-.7.7,2.81,2.82-5.63,5.63-7-7-.7.7,7,7-5.63,5.63-7-7-.71.71,7,7L59.39,254l-2.81-2.82-.71.71,2.82,2.81-2.82,2.82.71.7,2.81-2.82L65,261.07,60.1,266l.7.71,4.93-4.93,5.63,5.63-4.93,4.93.7.7,4.93-4.93,5.63,5.64-2.81,2.81.7.7,2.82-2.81,3.17,3.17.35.35.52-.53.18-.18-3.52-3.51,5.63-5.64Zm-7.74-9.15-5.63-5.63,5.63-5.64,5.63,5.64Zm-6.33-6.34-5.63-5.63,5.63-5.63L84,254.73Zm18.3-5.63-5.63,5.63-5.63-5.63,5.63-5.63Zm-6.34-6.33L84.73,254,79.1,248.4l5.63-5.64Zm-12-12L84,242.06l-5.63,5.63-5.63-5.63Zm-6.34,6.33,5.63,5.64L72.06,254l-5.63-5.63Zm-12,12,5.63-5.63,5.63,5.63-5.63,5.63Zm6.33,6.34,5.63-5.64,5.63,5.64-5.63,5.63Zm12,12-5.63-5.63,5.63-5.63L84,267.4Z" transform="translate(-53 -229.34)" fill="none"/><rect x="120.29" y="301.6" width="11.95" height="1.99" transform="translate(-229.99 -51.43) rotate(-45)" fill="#3b3b3b"/><path d="M110.17,292h0l-.4.4a1.88,1.88,0,0,1,0,.34,2.48,2.48,0,0,1-.41,1.38l11.25,11.25,8.44-8.45-11.2-11.21-2,.6Z" transform="translate(-53 -229.34)" fill="#3b3b3b"/><path d="M123.49,308.18a5.8,5.8,0,0,0,7.57-.53l.26-.26a5.81,5.81,0,0,0,.52-7.57Z" transform="translate(-53 -229.34)" fill="#3b3b3b"/><rect x="68.08" y="244.41" width="7.96" height="7.96" transform="translate(-207.54 -105.63) rotate(-45)" fill="#3b3b3b"/><rect x="80.75" y="244.41" width="7.96" height="7.96" transform="translate(-203.83 -96.67) rotate(-45)" fill="#3b3b3b"/><rect x="87.08" y="250.75" width="7.96" height="7.96" transform="translate(-206.45 -90.33) rotate(-45)" fill="#3b3b3b"/><rect x="74.41" y="250.75" width="7.96" height="7.96" transform="translate(-210.16 -99.29) rotate(-45)" fill="#3b3b3b"/><rect x="74.41" y="238.08" width="7.96" height="7.96" transform="translate(-201.2 -103) rotate(-45)" fill="#3b3b3b"/><rect x="68.08" y="257.08" width="7.96" height="7.96" transform="translate(-216.5 -101.91) rotate(-45)" fill="#3b3b3b"/><rect x="74.41" y="263.42" width="7.96" height="7.96" transform="translate(-219.12 -95.58) rotate(-45)" fill="#3b3b3b"/><path d="M99.56,282.55a1.88,1.88,0,0,1,.34,0l.4-.4h0l.81-.81c-1.65-.5-5-1.49-7-1.95-1.15-.27-2.36-.52-3.56-.74a21.37,21.37,0,0,0,11.75-11.74c.22,1.19.47,2.4.74,3.56.46,1.95,1.45,5.3,2,7l1-1,1-3.31c-.37-1.32-.72-2.58-.92-3.42a118.93,118.93,0,0,1-2-12A28.71,28.71,0,0,0,95.42,238c-10.57-10.56-26.7-11.56-36-2.23s-8.33,25.45,2.24,36a28.72,28.72,0,0,0,19.75,8.63,121,121,0,0,1,12,2c1,.24,2.57.68,4.14,1.13l.22-.22A2.53,2.53,0,0,1,99.56,282.55Zm-16.94-5.3-.18.18-.52.53-.35-.35-3.17-3.17-2.82,2.81-.7-.7,2.81-2.81-5.63-5.64L67.13,273l-.7-.7,4.93-4.93-5.63-5.63L60.8,266.7l-.7-.71L65,261.07l-5.63-5.64-2.81,2.82-.71-.7,2.82-2.82-2.82-2.81.71-.71L59.39,254,65,248.4l-7-7,.71-.71,7,7,5.63-5.63-7-7,.7-.7,7,7,5.63-5.63-2.81-2.82.7-.7L78.4,235l2.81-2.81.71.7-2.82,2.82,5.63,5.63,4.93-4.93.7.7-4.92,4.93,5.63,5.63L96,242.76l.71.71-4.93,4.93L97.4,254l2.82-2.82.7.71-2.82,2.81,3.18,3.17.34.35-.52.52-.18.18-3.52-3.52-5.63,5.64,7.74,7.74-.7.7-7.74-7.74-5.63,5.63,7.74,7.74-.71.71-7.74-7.75-5.63,5.64Z" transform="translate(-53 -229.34)" fill="#3b3b3b"/><rect x="61.75" y="250.75" width="7.96" height="7.96" transform="translate(-213.87 -108.25) rotate(-45)" fill="#3b3b3b"/><rect x="80.75" y="257.08" width="7.96" height="7.96" transform="translate(-212.79 -92.96) rotate(-45)" fill="#3b3b3b"/></svg>