<svg xmlns="http://www.w3.org/2000/svg" width="69.92" height="75.86" viewBox="0 0 69.92 75.86"><path d="M671,443.26a33.82,33.82,0,0,1-18.55-3.46,1.23,1.23,0,0,0-.92-.12c-.13,0-13.09,3.51-23.53,1.19-6.51-1.44-12.65-6-17.13-9.38l-1.71-1.26a13.66,13.66,0,0,0-2.92-1.38,10.93,10.93,0,0,1-1.22-.5.46.46,0,0,1-.18-.38v-2.79c0-2.21,9.32-36.24,10.76-40.56a.78.78,0,0,1,.28-.2L634.21,376l5.93,7.72a1.06,1.06,0,0,1-.06,1.33l-5.86,6.57a1,1,0,0,1-1.43.14l-2.37-2.19a1.22,1.22,0,0,0-1-.27,1.26,1.26,0,0,0-.88.67c-.2.39-2,.87-3.82.88l-.6-.06a1.21,1.21,0,0,0-1.07,1.94c.51.66.9,1.18,1.13,1.49l1.17,19.94c-.73,2.83-1.39,3.63-1.56,3.79a1.21,1.21,0,0,0,.36,2.36c1.37,0,2.53-1.8,3.47-5.3a14.74,14.74,0,0,1,18.61.15c3,3.06,3.23,5.09,3.24,5.18a1.21,1.21,0,0,0,2.41,0c0-.28-.1-2.66-3.22-6.09,2.94-3.62,6.29-5.7,10-6.16,6.36-.78,11.71,3.5,11.77,3.54a1.2,1.2,0,0,0,1.52-1.87c-.25-.2-6.17-5-13.56-4.06-4.32.52-8.2,2.86-11.54,7-2.71-1.85-10.49-6-19.19-.56l-1.08-18.34a1.22,1.22,0,0,0-.17-.56,8,8,0,0,0,3.29-1l1.56,1.43a3.46,3.46,0,0,0,4.82-.35l5.86-6.57a3.49,3.49,0,0,0,.19-4.38l-6.53-8.5a1.19,1.19,0,0,0-1.46-.36l-19.2,8.77a2.89,2.89,0,0,0-1.55,1.58c-.69,2.05-10.92,38.53-10.92,41.37V428a2.89,2.89,0,0,0,1.11,2.28,7.76,7.76,0,0,0,1.85.86,12.94,12.94,0,0,1,2.36,1.06l1.69,1.26c4.66,3.47,11,8.24,18.05,9.8,10,2.21,21.7-.47,24.22-1.1a36,36,0,0,0,15.89,3.73,33.31,33.31,0,0,0,3.68-.2,1.21,1.21,0,1,0-.27-2.4Z" transform="translate(-602.41 -370)" fill="#fff"/><path d="M665.09,428.66a1.2,1.2,0,0,0-2.4.13c0,.8.59,3.53,8.24,4.8l.2,0a1.2,1.2,0,0,0,.2-2.39C666,430.32,665.16,428.82,665.09,428.66Z" transform="translate(-602.41 -370)" fill="#fff"/><path d="M661.46,370a1.2,1.2,0,0,0-1,.43l-9.67,12.26a1.2,1.2,0,0,0,.94,1.95h3.68v3.42a1.2,1.2,0,0,0,1.2,1.2h9.65a1.2,1.2,0,0,0,1.2-1.2v-3.42h3.62a1.2,1.2,0,0,0,.94-1.95l-9.67-12.26a1.19,1.19,0,0,0-.94-.43Zm-7.19,12.23,7.19-9.1,7.18,9.1h-2.33a1.21,1.21,0,0,0-1.21,1.21v3.41h-7.23v-3.41a1.21,1.21,0,0,0-1.21-1.21Z" transform="translate(-602.41 -370)" fill="#ffdd30"/><path d="M666.31,391.55h-9.65a1.2,1.2,0,0,0-1.2,1.2v3.62a1.2,1.2,0,0,0,1.2,1.2h9.65a1.2,1.2,0,0,0,1.2-1.2v-3.62a1.2,1.2,0,0,0-1.2-1.2Zm-8.44,3.61V394h7.23v1.2Z" transform="translate(-602.41 -370)" fill="#ffdd30"/><path d="M666.31,399.86h-9.65a1.21,1.21,0,0,0,0,2.41h9.65a1.21,1.21,0,0,0,0-2.41Z" transform="translate(-602.41 -370)" fill="#ffdd30"/><path d="M641.94,434.84c-15.79,3.38-22.54-7.42-22.82-7.88a1.21,1.21,0,0,0-2.07,1.24,20.56,20.56,0,0,0,6.1,6,23.39,23.39,0,0,0,13,3.73,30.09,30.09,0,0,0,6.33-.7,1.21,1.21,0,0,0-.51-2.36Z" transform="translate(-602.41 -370)" fill="#fff"/></svg>