<svg xmlns="http://www.w3.org/2000/svg" width="70" height="70" viewBox="0 0 70 70"><path d="M648.16,168.13c-5.06,0-9,2.48-9,5.65s4,5.64,9,5.64,9-2.48,9-5.64S653.23,168.13,648.16,168.13Zm0,9c-4,0-6.77-1.78-6.77-3.38s2.78-3.39,6.77-3.39,6.78,1.78,6.78,3.39S652.15,177.16,648.16,177.16Z" transform="translate(-603 -162)" fill="#ffdd30"/><path d="M648.16,162c-14.39,0-24.84,5.22-24.84,12.42v10.16h-5.64A14.7,14.7,0,0,0,603,199.26v13.55a14.7,14.7,0,0,0,14.68,14.68h14.79A5.64,5.64,0,0,0,638,232h19.19a4.52,4.52,0,0,0,4.52-4.51V211.68a4.53,4.53,0,0,0-4.52-4.52H638a5.65,5.65,0,0,0-5.53,4.52H617.68a12.33,12.33,0,0,1-5.64-1.37c.11-5.85,4-9.92,9.52-9.92h26.6c14.39,0,24.84-5.22,24.84-12.42V174.42C673,167.22,662.55,162,648.16,162Zm-22.58,17.83a18.62,18.62,0,0,0,7.78,4.75h-7.78Zm9.24,47.66h2v1.12a3.46,3.46,0,0,0,.16,1A3.39,3.39,0,0,1,634.82,227.49Zm6.57,1.12a1.13,1.13,0,0,1-2.26,0v-1.12h2.26Zm2.05-19.19h13.75a2.26,2.26,0,0,1,2.26,2.26v15.81a2.26,2.26,0,0,1-2.26,2.25H643.44a3.49,3.49,0,0,0,.21-1.13V210.55A3.54,3.54,0,0,0,643.44,209.42Zm-4.31,1.13a1.13,1.13,0,0,1,2.26,0v1.13h-2.26Zm-2.1-1a3.46,3.46,0,0,0-.16,1v1.13h-2A3.38,3.38,0,0,1,637,209.58Zm-20.48,4.3v4.57h2.26v-4.51h2.25v4.51h2.26v-4.51h2.26v9h2.26v-9h2.26v4.51h2.25v-4.51h2.26v4.51h2.26v-4.51h4.52v11.29H617.68a12.43,12.43,0,0,1-12.42-12.42v-5.76A14.68,14.68,0,0,0,616.55,213.88ZM670.74,188c0,5.7-9.92,10.16-22.58,10.16h-26.6c-6.4,0-11,4.36-11.69,10.77a12.4,12.4,0,0,1,4.42-21.58v4h2.26V186.9a10.55,10.55,0,0,1,1.13-.06h1.13v9h2.25v-9h2.26v4.52h2.26v-4.52h2.26v4.52h2.26v-4.52h2.25v9h2.26v-9h2.26v4.52h2.26v-4.52h2.26v4.52h2.26v-4.52h2.25v9h2.26v-9c.77,0,1.52,0,2.26-.05v4.57h2.26v-4.71c.77-.06,1.52-.14,2.26-.24v5h2.25v-5.29c6.15-1.09,10.93-3.3,13.55-6.24Zm-22.58-3.39c-12.66,0-22.58-4.46-22.58-10.16s9.92-10.16,22.58-10.16,22.58,4.46,22.58,10.16S660.82,184.58,648.16,184.58Z" transform="translate(-603 -162)" fill="#fff"/><rect x="49.68" y="51.94" width="2.26" height="11.29" fill="#ffdd30"/><rect x="45.16" y="51.94" width="2.26" height="11.29" fill="#ffdd30"/></svg>