<svg xmlns="http://www.w3.org/2000/svg" width="80" height="80" viewBox="0 0 80 80"><path d="M631.5,142a11.51,11.51,0,1,0,6,21.31,12.05,12.05,0,0,0,1.93-1.48A11.49,11.49,0,0,0,631.5,142Zm0,21a9.42,9.42,0,0,1-5.74-1.95,5.86,5.86,0,0,1,11.47,0A9.39,9.39,0,0,1,631.5,163ZM629,151.72a2.52,2.52,0,1,1,2.52,2.52A2.52,2.52,0,0,1,629,151.72Zm9.84,7.83a8.33,8.33,0,0,0-4.31-4.48,4.52,4.52,0,1,0-6,0,8.35,8.35,0,0,0-4.32,4.48,9.51,9.51,0,1,1,14.65,0Z" transform="translate(-598 -136)" fill="#ffdd30"/><path d="M658.71,150.25a.3.3,0,0,1,.3.3v5.9a.29.29,0,0,1-.3.3H649a.29.29,0,0,1-.3-.3v-5.9a.3.3,0,0,1,.3-.3h9.74m0-2H649a2.3,2.3,0,0,0-2.3,2.3v5.9a2.3,2.3,0,0,0,2.3,2.3h9.74a2.3,2.3,0,0,0,2.3-2.3v-5.9a2.3,2.3,0,0,0-2.3-2.3Z" transform="translate(-598 -136)" fill="#ffdd30"/><path d="M664,169.45a16.91,16.91,0,0,0,4.4,5.54,21.65,21.65,0,0,0,7.54,3.9,31.25,31.25,0,0,1-3.92,16.58c-4.11,7-11.71,10.76-14,11.79-2.34-1-9.94-4.8-14-11.79A31.25,31.25,0,0,1,640,178.89a21.65,21.65,0,0,0,7.54-3.9,16.91,16.91,0,0,0,4.4-5.54H664m1.31-2H650.66a14.49,14.49,0,0,1-4.35,6,19.07,19.07,0,0,1-8.16,3.84,33,33,0,0,0,4.08,19.21c5.3,9,15.77,12.94,15.77,12.94s10.47-3.92,15.77-12.94a33,33,0,0,0,4.08-19.21,19.07,19.07,0,0,1-8.16-3.84,14.49,14.49,0,0,1-4.35-6Z" transform="translate(-598 -136)" fill="#fff"/><path d="M660.63,197.17h-5.26a1,1,0,0,1-1-1v-4.83h-4.83a1,1,0,0,1-1-1v-5.26a1,1,0,0,1,1-1h4.83v-4.83a1,1,0,0,1,1-1h5.26a1,1,0,0,1,1,1v4.83h4.83a1,1,0,0,1,1,1v5.26a1,1,0,0,1-1,1h-4.83v4.83A1,1,0,0,1,660.63,197.17Zm-4.26-2h3.26v-4.83a1,1,0,0,1,1-1h4.83v-3.26h-4.83a1,1,0,0,1-1-1v-4.83h-3.26v4.83a1,1,0,0,1-1,1h-4.83v3.26h4.83a1,1,0,0,1,1,1Z" transform="translate(-598 -136)" fill="#ffdd30"/><rect x="21.99" y="67.68" width="14.77" height="2" rx="1" fill="#fff"/><path d="M667.48,164.47,668,166V138.83a2.83,2.83,0,0,0-2.83-2.83H606.5a8.49,8.49,0,0,0-8.5,8.5v12.83h11v-2h-9V144.5a6.5,6.5,0,1,1,13,0v4h0v64.71a2.83,2.83,0,0,0,2.83,2.83h49.34a2.83,2.83,0,0,0,2.83-2.83v-6c-.68.51-1.35,1-2,1.41v4.62a.83.83,0,0,1-.83.83H615.83a.83.83,0,0,1-.83-.83V145h0v-.48a8.5,8.5,0,0,0-2-5.47,8.35,8.35,0,0,0-1-1h53.2a.83.83,0,0,1,.83.83v25.62Z" transform="translate(-598 -136)" fill="#fff"/><path d="M644.91,170.68H621a1,1,0,0,0,0,2h21.08a15.44,15.44,0,0,0,2.34-1.57C644.59,171,644.75,170.82,644.91,170.68Z" transform="translate(-598 -136)" fill="#fff"/><path d="M621,181.68a1,1,0,0,0,0,2h14.17c-.06-.71-.11-1.38-.13-2Z" transform="translate(-598 -136)" fill="#fff"/><path d="M621,192.68a1,1,0,0,0,0,2h17c-.3-.67-.56-1.34-.8-2Z" transform="translate(-598 -136)" fill="#fff"/></svg>