<svg xmlns="http://www.w3.org/2000/svg" width="78.72" height="80" viewBox="0 0 78.72 80"><path d="M638.84,261.33c-3.45,9-3.58,15.88-.33,20,2.42,3.1,4.94,4.67,7.49,4.67,1.67,0,4.12-.7,6.29-4,1.88-2.88,2.44-9.67-.3-15.43,3.45.51,9.92,2.95,16.34,9.81,4.81,5.74,7.35,13.44,7.35,22.28a37.36,37.36,0,1,1-67.57-22,21.66,21.66,0,0,1,4.77-4.43c-.26,3.31-.36,7.93.76,10.79a20.88,20.88,0,0,0,2.6,4.92,9.17,9.17,0,0,0,6.35,3.6l2.52.12-.46-2.48a39.91,39.91,0,0,1,.08-12.33c1.49-8.83,9.3-13.48,14.11-15.53M642.4,258c-.64,0-17.28,4.48-19.64,18.52a41.29,41.29,0,0,0-.07,13,7.08,7.08,0,0,1-4.86-2.81,18.5,18.5,0,0,1-2.32-4.44c-1.65-4.19-.22-13.59-.22-13.59a21.07,21.07,0,0,0-8.77,6.75,39.36,39.36,0,1,0,71.16,23.19c0-8.86-2.43-17.16-7.86-23.6-7.64-8.19-15.64-10.59-19.11-10.59-1.4,0-2.07.39-1.69.94,3.86,5.66,3.19,13.05,1.6,15.49-1.31,2-2.87,3.13-4.62,3.13s-3.81-1.21-5.92-3.9c-5.35-6.83,2.18-21.61,2.32-22.11Z" transform="translate(-598.96 -258.01)" fill="#ffdd30"/><path d="M626.68,310.46l-.9.92v2.95h-2V301.49h2v7.41l.63-.79,2.5-2.82h2.44L628,309.06l3.72,5.27h-2.35Z" transform="translate(-598.96 -258.01)" fill="#fff"/><path d="M636.23,312.88a1.88,1.88,0,0,0,1.26-.44,1.53,1.53,0,0,0,.53-1.1h1.92a3.08,3.08,0,0,1-.53,1.58,3.45,3.45,0,0,1-1.34,1.16,4,4,0,0,1-1.82.42,3.86,3.86,0,0,1-3-1.23,4.88,4.88,0,0,1-1.11-3.39v-.21a4.83,4.83,0,0,1,1.1-3.31,3.85,3.85,0,0,1,3-1.24,3.75,3.75,0,0,1,2.63.94,3.39,3.39,0,0,1,1.07,2.47H638a1.87,1.87,0,0,0-.53-1.28,1.71,1.71,0,0,0-1.26-.5,1.8,1.8,0,0,0-1.53.72,3.72,3.72,0,0,0-.54,2.17V310a3.78,3.78,0,0,0,.53,2.2A1.81,1.81,0,0,0,636.23,312.88Z" transform="translate(-598.96 -258.01)" fill="#fff"/><path d="M646.88,314.33a3.11,3.11,0,0,1-.24-.84,3.17,3.17,0,0,1-2.37,1,3.21,3.21,0,0,1-2.23-.78,2.49,2.49,0,0,1-.86-1.92,2.57,2.57,0,0,1,1.08-2.22,5.23,5.23,0,0,1,3.07-.77h1.24v-.59a1.6,1.6,0,0,0-.39-1.13,1.55,1.55,0,0,0-1.19-.42,1.73,1.73,0,0,0-1.14.35,1,1,0,0,0-.44.88h-2a2.24,2.24,0,0,1,.5-1.39,3.16,3.16,0,0,1,1.34-1,4.83,4.83,0,0,1,1.89-.37,3.83,3.83,0,0,1,2.54.8,2.86,2.86,0,0,1,1,2.25v4.07a4.58,4.58,0,0,0,.34,1.95v.14Zm-2.24-1.46a2.41,2.41,0,0,0,1.14-.29,1.94,1.94,0,0,0,.79-.79v-1.7h-1.09a3,3,0,0,0-1.7.39,1.27,1.27,0,0,0-.57,1.11,1.18,1.18,0,0,0,.39.93A1.47,1.47,0,0,0,644.64,312.87Z" transform="translate(-598.96 -258.01)" fill="#fff"/><path d="M652.89,314.33h-2V301.49h2Z" transform="translate(-598.96 -258.01)" fill="#fff"/><path d="M660.71,294.45h-5.82v2h5.82a.88.88,0,0,1,.87.87v23.05a.88.88,0,0,1-.87.87H615.93a.88.88,0,0,1-.87-.87V297.32a.88.88,0,0,1,.87-.87h32.93v-2H615.93a2.88,2.88,0,0,0-2.87,2.87v23.05a2.88,2.88,0,0,0,2.87,2.87h44.78a2.88,2.88,0,0,0,2.87-2.87V297.32A2.88,2.88,0,0,0,660.71,294.45Z" transform="translate(-598.96 -258.01)" fill="#fff"/></svg>