<svg xmlns="http://www.w3.org/2000/svg" width="70" height="80" viewBox="0 0 70 80"><path d="M794.94,206.67a16.28,16.28,0,0,1-1.83-1.44,3.33,3.33,0,1,0-4.46,5,22.75,22.75,0,0,0,2.54,2,3.27,3.27,0,0,0,1.87.58,3.33,3.33,0,0,0,1.88-6.09Z" transform="translate(-776.42 -147.17)" fill="#111"/><path d="M846.42,182.91c0-19.7-15.76-35.74-35.13-35.74a35.33,35.33,0,0,0-34.85,31.37,3.33,3.33,0,1,0,6.62.79,28.66,28.66,0,0,1,28.23-25.49c15.69,0,28.46,13,28.46,29.07A29,29,0,0,1,818.36,211l4-5.75a3.33,3.33,0,1,0-5.46-3.83l-8.37,11.94v0c-.08.12-.14.25-.21.37s-.08.14-.11.21-.06.19-.1.29-.07.22-.1.33a2.08,2.08,0,0,1,0,.23,3,3,0,0,0,0,.42v0c0,.08,0,.15,0,.23s0,.25,0,.38.05.2.08.31.06.2.1.31.09.19.14.29.09.19.15.28.13.17.2.26a1.5,1.5,0,0,0,.2.24,3.2,3.2,0,0,0,.27.25l.17.15L821,226.54a3.33,3.33,0,1,0,3.92-5.39l-5-3.65A35.66,35.66,0,0,0,846.42,182.91Z" transform="translate(-776.42 -147.17)" fill="#111"/><polygon points="31.73 69.21 31.73 69.21 31.73 69.21 31.73 69.21" fill="#111"/><path d="M818.57,197.14a6.24,6.24,0,0,1,4.72,1.05,6.12,6.12,0,0,1,1.49,1.47,21.37,21.37,0,1,0-13.55,4.7l3.24-4.62A6.27,6.27,0,0,1,818.57,197.14Zm0-19.48a2.45,2.45,0,1,1-2.45,2.45A2.45,2.45,0,0,1,818.54,177.66Zm-14.25,4.9a2.45,2.45,0,1,1,2.45-2.45A2.45,2.45,0,0,1,804.29,182.56Z" transform="translate(-776.42 -147.17)" fill="#111"/><path d="M785.75,195.88s0-.11,0-.17a3.9,3.9,0,0,0-.17-.48s0,0,0-.06a20.59,20.59,0,0,1-.93-2.25,3.33,3.33,0,0,0-6.31,2.15,25.88,25.88,0,0,0,1.11,2.74.05.05,0,0,1,0,0,3.66,3.66,0,0,0,.43.74s.09.1.13.16a3.32,3.32,0,0,0,.58.54l.07.06a3.68,3.68,0,0,0,.77.38l.21.06a3.31,3.31,0,0,0,.89.14h0a3.35,3.35,0,0,0,3.27-2.67,3.71,3.71,0,0,0,.07-.67A3.36,3.36,0,0,0,785.75,195.88Z" transform="translate(-776.42 -147.17)" fill="#111"/></svg>