<svg xmlns="http://www.w3.org/2000/svg" width="80" height="80" viewBox="0 0 80 80"><path d="M843.66,370.42a11.13,11.13,0,0,1-11.12-11.12c0-1.59.37-3.91,3.11-9.13.33-.63.76-1.4,1.22-2.2a40,40,0,1,0,15,31.22,40.28,40.28,0,0,0-1.52-11,11.11,11.11,0,0,1-6.67,2.22Zm-29.17,1.48a8.32,8.32,0,0,1,16.63,0v3.78h-4.69V371.9a3.63,3.63,0,0,0-7.25,0v3.78h-4.69Zm-21.91,0a8.32,8.32,0,0,1,16.63,0v3.78h-4.68V371.9a3.63,3.63,0,0,0-7.26,0v3.78h-4.69Zm44.15,12.16a24.88,24.88,0,1,1-49.75,0v-3.51l3.24,1.34a56.46,56.46,0,0,0,43.27,0l3.24-1.34Z" transform="translate(-771.85 -339.19)" fill="#111"/><path d="M839.66,352.27c-2.32,4.43-2.59,6.13-2.59,7a6.6,6.6,0,0,0,13.19,0c0-.9-.27-2.6-2.59-7-1.2-2.29-4-6.87-4-6.87s-2.8,4.58-4,6.87Z" transform="translate(-771.85 -339.19)" fill="#111"/></svg>