<svg xmlns="http://www.w3.org/2000/svg" width="80" height="80" viewBox="0 0 80 80"><rect x="420.29" y="119.26" width="11.95" height="1.99" transform="translate(-313.19 289.63) rotate(-45)" fill="#111"/><path d="M416.08,102.36l-.34.34,0,0-7,7,0,0-.34.34a.52.52,0,0,0,0,.73l12.27,12.26,8.44-8.44-12.26-12.27A.52.52,0,0,0,416.08,102.36Z" transform="translate(-353 -47)" fill="#111"/><path d="M431.06,125.31l.25-.25a5.8,5.8,0,0,0,.53-7.57l-8.35,8.35A5.8,5.8,0,0,0,431.06,125.31Z" transform="translate(-353 -47)" fill="#111"/><rect x="368.08" y="62.08" width="7.96" height="7.96" transform="translate(-290.74 235.44) rotate(-45)" fill="#111"/><rect x="380.75" y="62.08" width="7.96" height="7.96" transform="translate(-287.03 244.39) rotate(-45)" fill="#111"/><rect x="387.08" y="68.41" width="7.96" height="7.96" transform="translate(-289.65 250.73) rotate(-45)" fill="#111"/><rect x="374.41" y="68.41" width="7.96" height="7.96" transform="translate(-293.36 241.77) rotate(-45)" fill="#111"/><rect x="374.41" y="55.74" width="7.96" height="7.96" transform="translate(-284.4 238.06) rotate(-45)" fill="#111"/><rect x="368.08" y="74.75" width="7.96" height="7.96" transform="translate(-299.7 239.15) rotate(-45)" fill="#111"/><rect x="374.41" y="81.08" width="7.96" height="7.96" transform="translate(-302.32 245.48) rotate(-45)" fill="#111"/><path d="M359.39,53.39c-9.33,9.33-8.33,25.46,2.24,36A28.69,28.69,0,0,0,381.38,98a119.43,119.43,0,0,1,12,2c1.83.43,5.75,1.59,7.78,2.2L408,109l7-7-6.76-6.76c-.61-2-1.77-6-2.2-7.78a119.43,119.43,0,0,1-2-12,28.69,28.69,0,0,0-8.62-19.75C384.85,45.06,368.72,44.06,359.39,53.39Zm43.69,34.76c.57,2.42,1.95,7,2.2,7.81L402,99.28c-.84-.25-5.39-1.63-7.81-2.2-1.15-.27-2.36-.52-3.56-.74a21.43,21.43,0,0,0,11.75-11.75C402.56,85.79,402.81,87,403.08,88.15ZM396,60.43l.71.7-4.93,4.93,5.63,5.63,2.82-2.81.7.7L398.1,72.4l3.18,3.17.34.34-.52.53-.18.18L397.4,73.1l-5.63,5.63,7.74,7.74-.7.71-7.74-7.75-5.64,5.64,7.75,7.74-.71.7-7.74-7.74L379.1,91.4l3.52,3.52-.18.18-.53.52-.34-.34L378.4,92.1l-2.82,2.82-.7-.7,2.81-2.82-5.63-5.63-4.93,4.93-.7-.71,4.93-4.92-5.63-5.64-4.93,4.93-.71-.7L365,78.73l-5.63-5.63-2.81,2.81-.71-.7,2.82-2.81-2.82-2.82.71-.7,2.81,2.81L365,66.06l-7-7,.71-.7,7,7,5.63-5.63-7-7L365,52l7,7,5.63-5.63-2.81-2.81.7-.71,2.82,2.82,2.81-2.82.7.71-2.81,2.81L384.73,59l4.93-4.93.7.71-4.93,4.93,5.64,5.63Z" transform="translate(-353 -47)" fill="#111"/><rect x="361.74" y="68.41" width="7.96" height="7.96" transform="translate(-297.07 232.81) rotate(-45)" fill="#111"/><rect x="380.75" y="74.75" width="7.96" height="7.96" transform="translate(-295.99 248.1) rotate(-45)" fill="#111"/><path d="M376.05,111.63a9,9,0,1,0,12.73,0A9,9,0,0,0,376.05,111.63Zm4.12,8.36a1,1,0,0,1-1.46,0,1,1,0,0,1,0-1.46,1,1,0,1,1,1.46,1.46Zm4.24-4.25a1,1,0,1,1,0-1.45A1,1,0,0,1,384.41,115.74Z" transform="translate(-353 -47)" fill="#111"/></svg>