<svg xmlns="http://www.w3.org/2000/svg" width="60.94" height="80" viewBox="0 0 60.94 80"><path d="M790.68,126.17h46.87a7,7,0,0,0,7-7V69.61h-16.4a7,7,0,0,1-7-7V46.17H790.68a7,7,0,0,0-7,7v65.94A7,7,0,0,0,790.68,126.17Zm9.37-47h28.13a2.34,2.34,0,1,1,0,4.68H800.05a2.34,2.34,0,1,1,0-4.68Zm0,9.37h28.13a2.35,2.35,0,0,1,0,4.69H800.05a2.35,2.35,0,0,1,0-4.69Zm0,9.38h28.13a2.34,2.34,0,1,1,0,4.68H800.05a2.34,2.34,0,1,1,0-4.68Zm0,9.37H818.8a2.35,2.35,0,1,1,0,4.69H800.05a2.35,2.35,0,0,1,0-4.69Z" transform="translate(-783.65 -46.17)" fill="#111"/><path d="M828.18,64.92h15L825.83,47.54v15A2.35,2.35,0,0,0,828.18,64.92Z" transform="translate(-783.65 -46.17)" fill="#111"/></svg>