<svg xmlns="http://www.w3.org/2000/svg" width="80" height="80" viewBox="0 0 80 80"><path d="M843.57,246.47a28.29,28.29,0,1,0,0,40A28.29,28.29,0,0,0,843.57,246.47ZM817.3,259.39a3.24,3.24,0,1,1,4.59,0A3.25,3.25,0,0,1,817.3,259.39Zm13.34,13.34a3.24,3.24,0,1,1,4.58,0A3.24,3.24,0,0,1,830.64,272.73Z" transform="translate(-771.85 -238.18)" fill="#111"/><rect x="768.49" y="286.39" width="27.12" height="4.17" rx="2.08" transform="translate(-746.77 399.3) rotate(-45)" fill="#111"/><rect x="816.44" y="302.92" width="15.24" height="4.17" rx="2.08" transform="translate(-746.16 433.85) rotate(-45)" fill="#111"/><rect x="777.41" y="263.89" width="15.24" height="4.17" rx="2.08" transform="translate(-729.99 394.82) rotate(-45)" fill="#111"/><rect x="794.18" y="303.34" width="19.88" height="4.17" rx="2.08" transform="translate(-752.3 419.88) rotate(-45)" fill="#111"/><rect x="791.37" y="314.01" width="4.17" height="4.17" rx="2.08" transform="translate(-762.97 415.46) rotate(-45)" fill="#111"/><rect x="770.19" y="301.05" width="33.41" height="4.17" rx="2.08" transform="translate(-755.72 407.03) rotate(-45)" fill="#111"/></svg>