<?xml version="1.0" encoding="utf-8"?><svg viewBox="0 0 52 42.71" xmlns="http://www.w3.org/2000/svg" xmlns:xlink="http://www.w3.org/1999/xlink"><style>:root>svg{display:none}:root>svg:target{display:block}</style><svg viewBox="0 0 26 17" id="ic_all" xmlns="http://www.w3.org/2000/svg"><rect x="4" y="5" width="22" height="2" rx="1"/><rect y="5" width="2" height="2" rx="1"/><rect x="4" width="22" height="2" rx="1"/><rect width="2" height="2" rx="1"/><rect x="4" y="10" width="22" height="2" rx="1"/><rect y="10" width="2" height="2" rx="1"/><rect x="4" y="15" width="22" height="2" rx="1"/><rect y="15" width="2" height="2" rx="1"/></svg><svg viewBox="0 0 35.14 28.28" id="ic_arrow_left" xmlns="http://www.w3.org/2000/svg"><path d="M14.14.001l1.415 1.415L1.413 15.558l-1.414-1.414z"/><path d="M27.14 13.14v2h-25v-2zM31.14 13.14v2h-2v-2zM35.14 13.14v2h-2v-2z"/><path d="M15.554 26.876l-1.414 1.415L-.002 14.148l1.414-1.414z"/></svg><svg viewBox="0 0 35.14 28.28" id="ic_arrow_right" xmlns="http://www.w3.org/2000/svg"><path d="M35.136 14.143l-1.414 1.414L19.58 1.415 20.994 0z"/><path d="M33 13.14v2H8v-2zM6 13.14v2H4v-2zM2 13.14v2H0v-2z"/><path d="M33.728 12.728l1.415 1.414L21 28.284l-1.414-1.414z"/></svg><svg viewBox="0 0 27 30.66" id="ic_charter" xmlns="http://www.w3.org/2000/svg"><path d="M18.88 8.5v4H8.13v-4h10.75m.51-2H7.61a1.49 1.49 0 0 0-1.48 1.49v5a1.49 1.49 0 0 0 1.48 1.49h11.78a1.49 1.49 0 0 0 1.49-1.49v-5a1.49 1.49 0 0 0-1.49-1.49z"/><path d="M3.87 0A3.87 3.87 0 0 0 0 3.87v22.9a3.9 3.9 0 0 0 3.9 3.89H27v-2a1.89 1.89 0 0 1 0-3.76V0zM2 3.87A1.87 1.87 0 0 1 3.87 2H25v20.88H3.89a3.78 3.78 0 0 0-1.89.5zm1.9 24.79a1.89 1.89 0 1 1 0-3.78h19.93a3.86 3.86 0 0 0-.51 1.88 3.86 3.86 0 0 0 .51 1.88H3.9z"/></svg><svg viewBox="0 0 15 12" id="ic_email" xmlns="http://www.w3.org/2000/svg"><path d="M12.94 1A1.07 1.07 0 0 1 14 2.06v7.88A1.07 1.07 0 0 1 12.94 11H2.06A1.07 1.07 0 0 1 1 9.94V2.06A1.07 1.07 0 0 1 2.06 1h10.88m0-1H2.06A2.07 2.07 0 0 0 0 2.06v7.88A2.07 2.07 0 0 0 2.06 12h10.88A2.07 2.07 0 0 0 15 9.94V2.06A2.07 2.07 0 0 0 12.94 0z" fill="currentColor"/><path fill="none" stroke="currentColor" stroke-linecap="round" stroke-miterlimit="10" d="M1 1l6.51 6M14 1L7.49 7"/></svg><svg viewBox="0 0 25 25" id="ic_facebook" xmlns="http://www.w3.org/2000/svg"><path d="M21.2 0H3.79A3.8 3.8 0 0 0 0 3.79v17.42A3.8 3.8 0 0 0 3.79 25h5.09V14.64H5.26v-3.63h3.62v-2.9a4.71 4.71 0 0 1 5.08-5.07h2.9v3.62h-1.45c-1.61 0-2.18.33-2.18 1.45v2.9h3.63l-.72 3.63h-2.91V25h8a3.81 3.81 0 0 0 3.8-3.79V3.79A3.81 3.81 0 0 0 21.2 0z"/></svg><svg viewBox="0 0 48.67 30.66" id="ic_health" xmlns="http://www.w3.org/2000/svg"><path fill="none" stroke="currentColor" stroke-linecap="round" stroke-linejoin="round" stroke-width="2" d="M1 16h15.17l6-15 6.04 28.66 4.22-14.33h15.24"/></svg><svg viewBox="0 0 25 25" id="ic_instagram" xmlns="http://www.w3.org/2000/svg"><ellipse cx="12.5" cy="12.5" rx="4.08" ry="4.04"/><path d="M18.71 0H6.34a6.28 6.28 0 0 0-6.3 6.23v12.54A6.28 6.28 0 0 0 6.34 25h12.41a6.28 6.28 0 0 0 6.29-6.23V6.23A6.28 6.28 0 0 0 18.71 0zm-6.2 19.66a7.16 7.16 0 1 1 7.24-7.16 7.2 7.2 0 0 1-7.24 7.16zm7.48-13.27a1.83 1.83 0 1 1 1.84-1.83 1.83 1.83 0 0 1-1.84 1.83z"/></svg><svg viewBox="0 0 15.21 20" id="ic_location" xmlns="http://www.w3.org/2000/svg"><path d="M7.61 1.5a6.11 6.11 0 0 1 6.1 6.11c0 1.9-1.18 4-3.51 6.27l-.18.17a21 21 0 0 0-2.41 2.85 21 21 0 0 0-2.41-2.85l-.18-.2C2.69 11.59 1.5 9.48 1.5 7.58a6.12 6.12 0 0 1 6.11-6.11m0-1.5A7.61 7.61 0 0 0 0 7.58c0 3.76 3.56 6.92 4.14 7.5a14.15 14.15 0 0 1 3.47 4.89 14.15 14.15 0 0 1 3.47-4.89c.58-.58 4.13-3.74 4.13-7.5a7.61 7.61 0 0 0-7.6-7.61z" fill="#currentColor"/><path d="M7.61 5.45a2.16 2.16 0 1 1-2.16 2.16 2.16 2.16 0 0 1 2.16-2.16m0-1.5a3.66 3.66 0 1 0 3.71 3.66 3.66 3.66 0 0 0-3.66-3.66z" fill="#currentColor"/></svg><svg viewBox="0 0 30 26" id="ic_menu" xmlns="http://www.w3.org/2000/svg"><path fill-rule="evenodd" fill="currentColor" d="M0 0h30v2H0V0zM0 24h30v2H0v-2zM0 12h30v2H0v-2z"/></svg><svg viewBox="0 0 30.66 30.66" id="ic_money" xmlns="http://www.w3.org/2000/svg"><path d="M15.34 2A13.33 13.33 0 1 1 2 15.33 13.35 13.35 0 0 1 15.34 2m0-2a15.33 15.33 0 1 0 15.33 15.33A15.33 15.33 0 0 0 15.34 0z"/><path d="M11.49 17.96h2.08a1.33 1.33 0 0 0 .42 1 2.07 2.07 0 0 0 1.33.33 1.57 1.57 0 0 0 1.82-1.82 1.25 1.25 0 0 0-.08-.45 1.06 1.06 0 0 0-.19-.33 1 1 0 0 0-.3-.25 2.07 2.07 0 0 0-.37-.18 2.58 2.58 0 0 0-.45-.1l-.47-.07-.5-.07-.46-.07a4.47 4.47 0 0 1-.78-.17 2.61 2.61 0 0 1-.72-.34 2.38 2.38 0 0 1-.61-.57 2.66 2.66 0 0 1-.41-.88 4.22 4.22 0 0 1-.16-1.23 3.21 3.21 0 0 1 .72-2.21 3.29 3.29 0 0 1 2.11-1V7.94h1.84v1.63a3 3 0 0 1 1.83.9 3.51 3.51 0 0 1 .79 2.09h-2.07a1.27 1.27 0 0 0-.41-1 2 2 0 0 0-1.16-.28 1.9 1.9 0 0 0-1.24.32 1.51 1.51 0 0 0-.37 1.15 1.75 1.75 0 0 0 .06.48 1.27 1.27 0 0 0 .15.35.75.75 0 0 0 .27.26 2.15 2.15 0 0 0 .34.17 1.66 1.66 0 0 0 .43.11l.49.07.57.09.62.09a6.47 6.47 0 0 1 .78.18 3.5 3.5 0 0 1 .69.32 2.11 2.11 0 0 1 .58.53 2.72 2.72 0 0 1 .37.82 4 4 0 0 1 .15 1.16 4.24 4.24 0 0 1-.69 2.62 3.18 3.18 0 0 1-2.18 1.1v1.57h-1.84v-1.56a2.92 2.92 0 0 1-2.98-3.15z"/></svg><svg viewBox="0 0 25.47 30.67" id="ic_partners" xmlns="http://www.w3.org/2000/svg"><path d="M7.24 2a4.1 4.1 0 1 1-4.1 4.1A4.1 4.1 0 0 1 7.24 2m0-2a6.1 6.1 0 1 0 6.09 6.1A6.1 6.1 0 0 0 7.24 0zM12.47 16.21v5.54a1.16 1.16 0 0 1-1.1 1.14l-1.91.08v5.7H5.01v-5.7l-1.91-.08A1.17 1.17 0 0 1 2 21.75v-5.54h10.47m.49-2H1.51A1.52 1.52 0 0 0 0 15.72v6a3.17 3.17 0 0 0 3 3.14v4.5a1.29 1.29 0 0 0 1.28 1.28h5.89a1.29 1.29 0 0 0 1.28-1.28v-4.44a3.16 3.16 0 0 0 3-3.14v-6a1.52 1.52 0 0 0-1.51-1.51zM18.24 2a4.1 4.1 0 1 1-3.29 6.51 7.92 7.92 0 0 1-.93 2 6 6 0 0 0 4.22 1.71 6.1 6.1 0 1 0-4.22-10.49 7.93 7.93 0 0 1 .94 2A4.08 4.08 0 0 1 18.24 2zM23.96 14.21h-7.85a3.5 3.5 0 0 1 .36 1.51v.49h7v5.54a1.16 1.16 0 0 1-1.1 1.14l-1.91.08v5.7h-4.45v-4.81a5 5 0 0 1-2 2.26v3.27a1.29 1.29 0 0 0 1.29 1.28h5.88a1.29 1.29 0 0 0 1.28-1.28v-4.47a3.16 3.16 0 0 0 3-3.14v-6a1.52 1.52 0 0 0-1.5-1.57z"/></svg><svg viewBox="0 0 19.47 20" id="ic_phone" xmlns="http://www.w3.org/2000/svg"><path d="M3.44 1.78l2.89 3.78h-.06l-.06.05-.06.07a3.3 3.3 0 0 0 .08 4.44l.05.05 2.76 3a3.86 3.86 0 0 0 2.7 1.1 3.21 3.21 0 0 0 1.93-.6l3.21 3.06c-1.81 1.39-2.71 1.6-3.4 1.6h-.28c-3.37-.22-11.7-9-11.76-13.26a4.72 4.72 0 0 1 1.68-3.2l.24-.25m0-1.78a1 1 0 0 0-.79.36l-.06.08c-.84 1-2.63 2.43-2.6 4.81.06 4.89 8.88 14.46 13.17 14.73h.37c1.21 0 2.49-.44 4.74-2.25a1 1 0 0 0 .11-1.55l-3.86-3.57a1.09 1.09 0 0 0-.63-.27h-.06a1 1 0 0 0-.66.24c-.07.07-.24.2-.24.2a1.62 1.62 0 0 1-1 .32 2.36 2.36 0 0 1-1.66-.68l-2.76-3a1.83 1.83 0 0 1-.15-2.52c.25-.22.16-.19.4-.41a1 1 0 0 0 .09-1.4L4.32.39a1 1 0 0 0-.77-.41zM19.19 7.63a1 1 0 0 1-1.33 0L12.54 2.3a.94.94 0 0 1 0-1.33 1 1 0 0 1 1.33 0l5.32 5.33a.94.94 0 0 1 0 1.33zM15.44 9.82a.94.94 0 0 1-1.33 0l-3.77-3.76a.94.94 0 0 1 0-1.33 1 1 0 0 1 1.33 0l3.8 3.81a.94.94 0 0 1-.03 1.28z" fill="#currentColor"/></svg><svg viewBox="0 0 25.86 25.86" id="ic_search" xmlns="http://www.w3.org/2000/svg"><path d="M15.73 2a8.13 8.13 0 1 1-8.13 8.12A8.13 8.13 0 0 1 15.73 2m0-2a10.13 10.13 0 1 0 10.13 10.12A10.12 10.12 0 0 0 15.73 0z" fill="#currentColor"/><path fill="none" stroke="currentColor" stroke-linecap="round" stroke-linejoin="round" stroke-width="2" d="M9.18 16.68L1 24.86"/></svg><svg viewBox="0 0 42 42" id="ic_time" xmlns="http://www.w3.org/2000/svg"><rect x="20" y="7" width="2" height="15" rx="1"/><rect x="214.63" y="235.27" width="2" height="15" rx="1" transform="rotate(90 232.445 37.815)"/><path d="M21 2A19 19 0 1 1 2 21 19 19 0 0 1 21 2m0-2a21 21 0 1 0 21 21A21 21 0 0 0 21 0z"/></svg><svg viewBox="0 0 30.48 30" id="ic_video_play" xmlns="http://www.w3.org/2000/svg"><path d="M2.98 2a.91.91 0 0 1 .43.1l24.51 12a1 1 0 0 1 0 1.77L3.39 27.89a.92.92 0 0 1-.43.11 1 1 0 0 1-.52-.15 1 1 0 0 1-.46-.84v-24a1 1 0 0 1 .46-.84 1 1 0 0 1 .52-.14m0-2a3 3 0 0 0-3 3v24a3 3 0 0 0 4.33 2.65l24.51-12a3 3 0 0 0 0-5.35L4.29.33a3 3 0 0 0-1.31-.3z"/></svg><svg viewBox="0 0 34 20.38" id="ic_vkontakte" xmlns="http://www.w3.org/2000/svg"><path d="M18.15 20.37c1.14 0 1.14-1.63 1.14-2.26a2.44 2.44 0 0 1 2.26-2.27c1.13 0 3.07 1.95 4.53 3.4 1.13 1.13 1.13 1.13 2.26 1.13h3.4A2.29 2.29 0 0 0 34 18.11c0-.71-.78-1.91-3.4-4.53-2.26-2.26-3.42-1.09 0-5.66 2.09-2.78 3.61-5.3 3.35-6s-6-1.8-6.74-.77a43.83 43.83 0 0 0-3.4 5.66c-1.13 2.26-1.24 3.4-2.26 3.4s-1.13-2.2-1.13-3.4c0-3.74.54-6.39-1.13-6.79h-3.4a6.62 6.62 0 0 0-3.4 1.13s-1.4 1.1-1.13 1.13 2.27-.47 2.27 1.13v2.27s0 4.53-1.14 4.53S9.1 5.68 6.84 2.28C5.95.95 5.71 1.15 4.57 1.15s-2.26.05-3.39.05S-.1 1.92.05 2.28c2.26 5.66 3.89 9.22 8.19 13.69 3.94 4.11 6.58 4.33 8.78 4.42.57.01-.02-.02 1.13-.02z"/></svg><svg viewBox="0 0 52 42.71" id="ic_warning" xmlns="http://www.w3.org/2000/svg"><path d="M49.95 36L28.04 2.21a2.49 2.49 0 0 0-2-1.2h.2-.5.21a2.44 2.44 0 0 0-2 1.2L2.04 36a4.4 4.4 0 0 0-.85 4 2.81 2.81 0 0 0 2.15 1.66 1.72 1.72 0 0 0 .41.07h44.49a2.38 2.38 0 0 0 .5-.09A2.75 2.75 0 0 0 50.8 40a4.4 4.4 0 0 0-.85-4z" fill="none" stroke="currentColor" stroke-miterlimit="10" stroke-width="2"/><rect x="24.88" y="12.5" width="2" height="18" rx="1" fill="currentColor"/><circle cx="25.87" cy="34.5" r="1" fill="currentColor"/></svg><svg viewBox="0 0 20.74 20.74" id="ic_whatsapp" xmlns="http://www.w3.org/2000/svg"><path d="M10.56 0A10.14 10.14 0 0 0 .38 10.1a10 10 0 0 0 1.46 5.22L0 20.74l5.64-1.79A10.13 10.13 0 1 0 10.56 0zm5.81 14a2.87 2.87 0 0 1-1.91 1.34c-.52 0-.52.42-3.39-.7a11.53 11.53 0 0 1-4.83-4.24 5.36 5.36 0 0 1-1.16-2.9 3.13 3.13 0 0 1 1-2.34 1.05 1.05 0 0 1 .75-.35h.52c.17 0 .43-.07.66.49s.8 1.94.87 2.08a.5.5 0 0 1 0 .49 2 2 0 0 1-.28.47c-.15.17-.3.37-.43.49s-.29.3-.12.58a8.46 8.46 0 0 0 1.57 1.94 7.87 7.87 0 0 0 2.27 1.39c.29.14.45.12.62-.07s.7-.82.89-1.1.38-.23.64-.14 1.65.77 1.93.91.47.21.54.33a2.35 2.35 0 0 1-.14 1.3z"/></svg><svg viewBox="0 0 31.69 22.27" id="ic_youtube" xmlns="http://www.w3.org/2000/svg"><path d="M16.05 22.27c-3.56-.12-6.95-.2-10.33-.33a13.43 13.43 0 0 1-2.19-.31A3.65 3.65 0 0 1 .8 19.19a13 13 0 0 1-.62-3.26 65.83 65.83 0 0 1-.11-7.82 19 19 0 0 1 .5-4.38 4.47 4.47 0 0 1 1.21-2.31A4 4 0 0 1 4.34.33c2.67-.13 5.33-.29 8-.32 3.59 0 7.19 0 10.78.08a42.73 42.73 0 0 1 4.66.31 3.63 3.63 0 0 1 3 2.35 11.16 11.16 0 0 1 .69 3.28 62.55 62.55 0 0 1 .11 8.44 18.54 18.54 0 0 1-.54 4.25 3.93 3.93 0 0 1-3.08 3 10.47 10.47 0 0 1-1.94.21zm-3.45-7.09l8.52-4.42L12.6 6.3z"/></svg></svg>